<svg width="50" height="50" viewBox="0 0 50 50" fill="none" xmlns="http://www.w3.org/2000/svg">
    <path
        d="M13.6211 14.2113C13.6211 13.8849 13.8857 13.6204 14.212 13.6204H36.0302C36.3565 13.6204 36.6211 13.8849 36.6211 14.2113V36.0295C36.6211 36.3558 36.3565 36.6204 36.0302 36.6204H33.1211C32.7948 36.6204 32.5302 36.3558 32.5302 36.0295C32.5302 35.7031 32.7948 35.4386 33.1211 35.4386H35.4393V30.075H27.3029C26.9766 30.075 26.712 29.8104 26.712 29.4841C26.712 29.1578 26.9766 28.8932 27.3029 28.8932H35.4393V14.8022H27.8938V20.166H32.3938C32.7202 20.166 32.9847 20.4306 32.9847 20.7569C32.9847 21.0832 32.7202 21.3478 32.3938 21.3478H27.3029C26.9766 21.3478 26.712 21.0832 26.712 20.7569V14.8022H14.8029V23.8023H20.8938V19.3021C20.8938 18.9758 21.1584 18.7112 21.4847 18.7112C21.8111 18.7112 22.0756 18.9758 22.0756 19.3021V29.4838C22.0756 29.8101 21.8111 30.0747 21.4847 30.0747C21.1584 30.0747 20.8938 29.8101 20.8938 29.4838V24.9841H14.8029V35.4386H26.5756C26.902 35.4386 27.1665 35.7031 27.1665 36.0295C27.1665 36.3558 26.902 36.6204 26.5756 36.6204H14.212C13.8857 36.6204 13.6211 36.3558 13.6211 36.0295V14.2113Z"
        fill="var(--icon-color, #000000)" />
</svg>