<svg width="26" height="27" viewBox="0 0 26 27" fill="none" xmlns="http://www.w3.org/2000/svg">
    <path
        d="M13.0813 1C10.7328 0.999967 8.43517 1.6839 6.46957 2.96814C4.50398 4.25238 2.95559 6.08123 2.01386 8.23096C1.07212 10.3807 0.777858 12.7581 1.16708 15.0723C1.55629 17.3865 2.61211 19.5372 4.20536 21.2612L3.53196 25.6024C3.51854 25.6891 3.52941 25.7778 3.56336 25.8588C3.59732 25.9397 3.65303 26.0097 3.72432 26.0609C3.79562 26.1121 3.87972 26.1427 3.96731 26.1491C4.0549 26.1555 4.14255 26.1376 4.22057 26.0973L8.11545 24.0819C9.67579 24.7877 11.3696 25.1508 13.0823 25.1466C16.2869 25.1464 19.3601 23.8743 21.6259 21.61C23.8918 19.3457 25.1647 16.2748 25.1645 13.0727C25.1644 9.8707 23.8912 6.79987 21.6252 4.5358C19.3591 2.27172 16.2858 0.999856 13.0813 1V1ZM13.0813 24.1948C11.428 24.1997 9.79471 23.8333 8.30226 23.1225C8.23601 23.0911 8.16341 23.0755 8.09012 23.0768C8.01683 23.0782 7.94484 23.0964 7.87976 23.1301L4.6094 24.8221L5.17528 21.1787C5.1864 21.1066 5.18071 21.0328 5.15868 20.9631C5.13664 20.8935 5.09883 20.8299 5.0482 20.7772C3.27128 18.9281 2.18814 16.5225 1.98205 13.9673C1.77595 11.4121 2.45955 8.86416 3.91719 6.75463C5.37483 4.64509 7.51701 3.10346 9.98131 2.39054C12.4456 1.67763 15.0807 1.83721 17.4408 2.84228C19.8009 3.84735 21.7411 5.63621 22.9331 7.90621C24.1251 10.1762 24.4957 12.788 23.9823 15.2996C23.4689 17.8112 22.103 20.0686 20.1156 21.6896C18.1281 23.3107 15.6413 24.1961 13.0758 24.1958L13.0813 24.1948Z"
        fill="var(--icon-color, #BEBEBE)" />
    <path
        d="M12.9049 4.34595C12.4787 4.34595 12.0621 4.47223 11.7077 4.70883C11.3533 4.94543 11.0771 5.28171 10.914 5.67516C10.7509 6.0686 10.7083 6.50154 10.7914 6.91922C10.8746 7.3369 11.0798 7.72058 11.3811 8.02171C11.6825 8.32284 12.0665 8.52791 12.4845 8.61099C12.9025 8.69407 13.3358 8.65144 13.7295 8.48846C14.1233 8.32549 14.4598 8.04951 14.6966 7.69541C14.9334 7.34132 15.0598 6.92502 15.0598 6.49916C15.0592 5.92827 14.832 5.38093 14.428 4.97725C14.024 4.57357 13.4762 4.34652 12.9049 4.34595V4.34595ZM12.9049 7.83949C12.6396 7.83949 12.3803 7.76088 12.1597 7.6136C11.9391 7.46632 11.7671 7.25699 11.6656 7.01208C11.5641 6.76716 11.5375 6.49767 11.5893 6.23767C11.641 5.97767 11.7688 5.73885 11.9564 5.5514C12.144 5.36395 12.383 5.2363 12.6432 5.18458C12.9034 5.13286 13.1731 5.15941 13.4182 5.26085C13.6633 5.3623 13.8728 5.53409 14.0202 5.75451C14.1676 5.97492 14.2463 6.23407 14.2463 6.49916C14.246 6.85455 14.1046 7.1953 13.8531 7.4466C13.6016 7.6979 13.2606 7.8392 12.9049 7.83949V7.83949Z"
        fill="var(--icon-color, #BEBEBE)" />
    <path
        d="M15.6641 18.1051H15.1634V10.8923C15.1634 10.7757 15.1171 10.6639 15.0346 10.5815C14.9521 10.4991 14.8402 10.4528 14.7235 10.4528H10.4985C10.3818 10.4528 10.2699 10.4991 10.1874 10.5815C10.1049 10.6639 10.0586 10.7757 10.0586 10.8923V12.3542C10.0586 12.4708 10.1049 12.5826 10.1874 12.665C10.2699 12.7474 10.3818 12.7937 10.4985 12.7937H11.0003V18.1051H10.4985C10.3818 18.1051 10.2699 18.1514 10.1874 18.2339C10.1049 18.3163 10.0586 18.4281 10.0586 18.5447V20.0065C10.0586 20.1231 10.1049 20.2349 10.1874 20.3174C10.2699 20.3998 10.3818 20.4461 10.4985 20.4461H15.6652C15.7819 20.4461 15.8938 20.3998 15.9763 20.3174C16.0588 20.2349 16.1051 20.1231 16.1051 20.0065V18.5447C16.1051 18.4869 16.0937 18.4296 16.0715 18.3762C16.0493 18.3228 16.0168 18.2743 15.9759 18.2335C15.9349 18.1926 15.8863 18.1603 15.8328 18.1383C15.7793 18.1162 15.722 18.105 15.6641 18.1051V18.1051ZM15.2242 19.567H10.9384V18.9853H11.4401C11.5568 18.9853 11.6687 18.939 11.7512 18.8565C11.8337 18.7741 11.88 18.6623 11.88 18.5457V12.3596C11.88 12.243 11.8337 12.1312 11.7512 12.0488C11.6687 11.9664 11.5568 11.9201 11.4401 11.9201H10.9384V11.3384H14.2826V18.5512C14.2826 18.6677 14.3289 18.7795 14.4114 18.862C14.4939 18.9444 14.6058 18.9907 14.7224 18.9907H15.2242V19.567Z"
        fill="var(--icon-color, #BEBEBE)" />
</svg>