<svg width="20" height="20" viewBox="0 0 20 20" fill="none" xmlns="http://www.w3.org/2000/svg">
    <path
        d="M5.25 12.6562C6.69975 12.6562 7.875 11.481 7.875 10.0312C7.875 8.5815 6.69975 7.40625 5.25 7.40625C3.80025 7.40625 2.625 8.5815 2.625 10.0312C2.625 11.481 3.80025 12.6562 5.25 12.6562Z"
        stroke="var(--icon-color, #BEBEBE)" stroke-width="1.5" stroke-linecap="round" stroke-linejoin="round" />
    <path
        d="M14.4375 18.5625C15.8872 18.5625 17.0625 17.3872 17.0625 15.9375C17.0625 14.4878 15.8872 13.3125 14.4375 13.3125C12.9878 13.3125 11.8125 14.4878 11.8125 15.9375C11.8125 17.3872 12.9878 18.5625 14.4375 18.5625Z"
        stroke="var(--icon-color, #BEBEBE)" stroke-width="1.5" stroke-linecap="round" stroke-linejoin="round" />
    <path
        d="M14.4375 6.75C15.8872 6.75 17.0625 5.57475 17.0625 4.125C17.0625 2.67525 15.8872 1.5 14.4375 1.5C12.9878 1.5 11.8125 2.67525 11.8125 4.125C11.8125 5.57475 12.9878 6.75 14.4375 6.75Z"
        stroke="var(--icon-color, #BEBEBE)" stroke-width="1.5" stroke-linecap="round" stroke-linejoin="round" />
    <path d="M12.2299 5.54437L7.45801 8.61199" stroke="var(--icon-color, #BEBEBE)" stroke-width="1.5"
        stroke-linecap="round" stroke-linejoin="round" />
    <path d="M7.45801 11.4505L12.2299 14.5181" stroke="var(--icon-color, #BEBEBE)" stroke-width="1.5"
        stroke-linecap="round" stroke-linejoin="round" />
</svg>