<svg width="50" height="50" viewBox="0 0 50 50" fill="none" xmlns="http://www.w3.org/2000/svg">
    <path
        d="M29.4962 12.1204C24.5728 12.1204 20.5319 15.5148 20.2193 19.7905C15.5305 20.0257 11.1211 23.4068 11.1211 27.9798C11.1211 29.8909 11.8773 31.7426 13.2539 33.2098C13.5263 34.3326 13.1956 35.5227 12.3751 36.3432C12.2187 36.4996 12.1719 36.7348 12.2565 36.9392C12.3411 37.1434 12.5404 37.2767 12.7617 37.2767C14.3214 37.2767 15.8245 36.6651 16.9413 35.5874C18.0293 35.9583 19.4488 36.183 20.7461 36.183C25.6689 36.183 29.7094 32.7894 30.0228 28.5145C31.1678 28.4637 32.3588 28.2522 33.301 27.9311C34.4179 29.0088 35.9209 29.6205 37.4806 29.6205C37.7019 29.6205 37.9012 29.4872 37.9858 29.2829C38.0704 29.0785 38.0236 28.8433 37.8673 28.6869C37.0467 27.8664 36.716 26.6763 36.9884 25.5535C38.365 24.0863 39.1212 22.2346 39.1212 20.3235C39.1212 15.5719 34.3722 12.1204 29.4962 12.1204ZM20.7461 35.0892C19.4554 35.0892 17.9846 34.8359 16.9994 34.4439C16.7883 34.3597 16.5471 34.415 16.3936 34.5827C15.7332 35.3046 14.8747 35.8079 13.9392 36.0392C14.4547 35.0516 14.5863 33.8874 14.2727 32.7842C14.2479 32.6973 14.202 32.6178 14.139 32.5531C12.8982 31.2752 12.2148 29.651 12.2148 27.9798C12.2148 24.126 16.1216 20.8704 20.7461 20.8704C25.113 20.8704 28.9493 23.9071 28.9493 27.9798C28.9493 31.9 25.2694 35.0892 20.7461 35.0892V35.0892ZM36.1034 24.8968C36.0404 24.9617 35.9944 25.0412 35.9696 25.1279C35.656 26.2311 35.7876 27.3953 36.3031 28.3829C35.3676 28.1518 34.5091 27.6483 33.8488 26.9264C33.6952 26.759 33.454 26.7034 33.2429 26.7876C32.3891 27.1272 31.171 27.3624 30.0211 27.4193C29.8613 25.3512 28.8297 23.4074 27.066 21.9642H34.1993C34.5014 21.9642 34.7462 21.7193 34.7462 21.4173C34.7462 21.1152 34.5014 20.8704 34.1993 20.8704H25.3858C24.1445 20.2385 22.7506 19.87 21.3159 19.7927C21.6301 16.1196 25.1791 13.2141 29.4962 13.2141C34.1207 13.2141 38.0275 16.4697 38.0275 20.3235C38.0275 21.9947 37.3441 23.6189 36.1034 24.8968V24.8968Z"
        fill="var(--icon-color, #000000)" />
    <path
        d="M32.5586 17.5891H25.668C25.3659 17.5891 25.1211 17.8339 25.1211 18.136C25.1211 18.4381 25.3659 18.6829 25.668 18.6829H32.5586C32.8607 18.6829 33.1055 18.4381 33.1055 18.136C33.1055 17.8339 32.8607 17.5891 32.5586 17.5891Z"
        fill="var(--icon-color, #000000)" />
    <path
        d="M19.7818 29.9864V29.4694C19.7818 29.1614 19.8441 28.8827 19.9688 28.6334C20.1008 28.384 20.2548 28.175 20.4308 28.0064C20.6141 27.8304 20.7975 27.6654 20.9808 27.5114C21.1641 27.35 21.3181 27.1667 21.4428 26.9614C21.5748 26.756 21.6408 26.5324 21.6408 26.2904C21.6408 25.9824 21.5198 25.7257 21.2778 25.5204C21.0431 25.3077 20.7461 25.2014 20.3868 25.2014C19.9395 25.2014 19.5251 25.3554 19.1438 25.6634L18.5498 24.9044C19.0778 24.435 19.7158 24.2004 20.4638 24.2004C21.1018 24.2004 21.6445 24.3874 22.0918 24.7614C22.5391 25.1354 22.7628 25.6194 22.7628 26.2134C22.7628 26.5507 22.6968 26.855 22.5648 27.1264C22.4328 27.3904 22.2715 27.614 22.0808 27.7974C21.8901 27.9734 21.6958 28.1457 21.4978 28.3144C21.3071 28.4757 21.1458 28.659 21.0138 28.8644C20.8818 29.0697 20.8158 29.2934 20.8158 29.5354V29.9864H19.7818ZM19.7488 32.1204V31.0314H20.8488V32.1204H19.7488Z"
        fill="var(--icon-color, #000000)" />
</svg>