<svg width="50" height="50" viewBox="0 0 50 50" fill="none" xmlns="http://www.w3.org/2000/svg">
    <path fill-rule="evenodd" clip-rule="evenodd"
        d="M12.5781 10.25C12.5781 9.87895 12.879 9.57812 13.25 9.57812H19.5C19.871 9.57812 20.1719 9.87895 20.1719 10.25V15.25C20.1719 15.621 19.871 15.9219 19.5 15.9219H13.25C12.879 15.9219 12.5781 15.621 12.5781 15.25V10.25ZM18.8281 10.9219H13.9219V14.5781H18.8281V10.9219Z"
        fill="var(--icon-color, #000000)" />
    <path fill-rule="evenodd" clip-rule="evenodd"
        d="M23.8281 10.25C23.8281 9.87895 24.129 9.57812 24.5 9.57812H30.75C31.121 9.57812 31.4219 9.87895 31.4219 10.25V15.25C31.4219 15.621 31.121 15.9219 30.75 15.9219H24.5C24.129 15.9219 23.8281 15.621 23.8281 15.25V10.25ZM30.0781 10.9219H25.1719V14.5781H30.0781V10.9219Z"
        fill="var(--icon-color, #000000)" />
    <path fill-rule="evenodd" clip-rule="evenodd"
        d="M23.8281 20.25C23.8281 19.879 24.129 19.5781 24.5 19.5781H30.75C31.121 19.5781 31.4219 19.879 31.4219 20.25V25.25C31.4219 25.621 31.121 25.9219 30.75 25.9219H24.5C24.129 25.9219 23.8281 25.621 23.8281 25.25V20.25ZM30.0781 20.9219H25.1719V24.5781H30.0781V20.9219Z"
        fill="var(--icon-color, #000000)" />
    <path fill-rule="evenodd" clip-rule="evenodd"
        d="M12.5781 20.25C12.5781 19.879 12.879 19.5781 13.25 19.5781H19.5C19.871 19.5781 20.1719 19.879 20.1719 20.25V25.25C20.1719 25.621 19.871 25.9219 19.5 25.9219H13.25C12.879 25.9219 12.5781 25.621 12.5781 25.25V20.25ZM18.8281 20.9219H13.9219V24.5781H18.8281V20.9219Z"
        fill="var(--icon-color, #000000)" />
    <path fill-rule="evenodd" clip-rule="evenodd"
        d="M7.5 5.17188C7.5 4.80083 7.80083 4.5 8.17188 4.5H35.75C36.121 4.5 36.4219 4.80083 36.4219 5.17188V42.1562H42.5781V37.1719H40.6719C40.3008 37.1719 40 36.871 40 36.5V27.75C40 26.006 41.4854 24.5781 43.25 24.5781C45.0125 24.5781 46.5 26.0041 46.5 27.75V36.5C46.5 36.871 46.1992 37.1719 45.8281 37.1719H43.9219V42.1562H45.8281C46.1992 42.1562 46.5 42.4571 46.5 42.8281C46.5 43.1992 46.1992 43.5 45.8281 43.5H8.17188C7.80083 43.5 7.5 43.1992 7.5 42.8281V5.17188ZM35.0781 5.84375H8.84375V42.1562H12.5781V39C12.5781 38.629 12.879 38.3281 13.25 38.3281C13.621 38.3281 13.9219 38.629 13.9219 39V42.1562H17.5781V35.25C17.5781 32.8122 19.5622 30.8281 22 30.8281C24.4378 30.8281 26.4219 32.8122 26.4219 35.25V42.1562H30.0781V39C30.0781 38.629 30.379 38.3281 30.75 38.3281C31.121 38.3281 31.4219 38.629 31.4219 39V42.1562H35.0781V5.84375ZM43.25 25.9219C42.252 25.9219 41.3438 26.7398 41.3438 27.75V35.8281H45.1562V27.75C45.1562 26.7398 44.248 25.9219 43.25 25.9219ZM22 32.1719C20.3023 32.1719 18.9219 33.5523 18.9219 35.25V42.1562H25.0781V35.25C25.0781 33.5523 23.6977 32.1719 22 32.1719Z"
        fill="var(--icon-color, #000000)" />
</svg>