<svg width="50" height="50" viewBox="0 0 50 50" fill="none" xmlns="http://www.w3.org/2000/svg">
    <path
        d="M35.1211 14.7214H34.3211V13.5214C34.3211 13.3005 34.142 13.1214 33.9211 13.1214C33.7002 13.1214 33.5211 13.3005 33.5211 13.5214V14.7214H30.3211V13.5214C30.3211 13.3005 30.142 13.1214 29.9211 13.1214C29.7002 13.1214 29.5211 13.3005 29.5211 13.5214V14.7214H26.3211V13.5214C26.3211 13.3005 26.142 13.1214 25.9211 13.1214C25.7002 13.1214 25.5211 13.3005 25.5211 13.5214V14.7214H22.3211V13.5214C22.3211 13.3005 22.142 13.1214 21.9211 13.1214C21.7002 13.1214 21.5211 13.3005 21.5211 13.5214V14.7214H18.3211V13.5214C18.3211 13.3005 18.142 13.1214 17.9211 13.1214C17.7002 13.1214 17.5211 13.3005 17.5211 13.5214V14.7214H16.7211C15.6171 14.7227 14.7224 15.6174 14.7211 16.7214V26.5029C12.5493 28.9571 12.5934 32.6585 14.8231 35.0601C14.9341 35.1843 15.0519 35.3022 15.1759 35.4133L15.1795 35.4169H15.1819C17.583 37.6477 21.2848 37.6929 23.7395 35.5213H35.1211C36.2251 35.52 37.1198 34.6253 37.1211 33.5213V16.7213C37.1197 15.6173 36.2251 14.7227 35.1211 14.7214ZM23.3441 34.8288C21.1909 36.8208 17.8668 36.8186 15.7163 34.8237C15.6099 34.7282 15.5088 34.627 15.4135 34.5205C13.3087 32.2455 13.4467 28.6948 15.7217 26.59C17.9968 24.4851 21.5475 24.6231 23.6523 26.8982C25.7572 29.1733 25.6192 32.7239 23.3441 34.8288ZM36.3211 33.5214C36.3211 34.1841 35.7838 34.7214 35.1211 34.7214H24.5131C24.5619 34.661 24.6047 34.5966 24.6507 34.5346C24.6967 34.4726 24.7363 34.4218 24.7767 34.3634C24.8659 34.235 24.9491 34.1026 25.0283 33.9678C25.0515 33.9278 25.0775 33.8914 25.0995 33.8518C25.1982 33.6763 25.2882 33.4964 25.3695 33.3122C25.3903 33.2654 25.4071 33.217 25.4267 33.1698C25.4847 33.0306 25.5391 32.8898 25.5867 32.747C25.6095 32.6798 25.6291 32.6118 25.6491 32.5438C25.6891 32.4154 25.7223 32.2858 25.7523 32.155C25.7687 32.0834 25.7847 32.0122 25.7991 31.9398C25.8255 31.803 25.8467 31.6646 25.8643 31.5254C25.8723 31.4614 25.8827 31.3978 25.8891 31.3334C25.9087 31.1306 25.9211 30.9266 25.9211 30.7214C25.9169 27.1885 23.054 24.3256 19.5211 24.3214C19.3159 24.3214 19.1119 24.3338 18.9091 24.3534C18.8447 24.3598 18.7811 24.3702 18.7167 24.3782C18.5779 24.3962 18.4399 24.4182 18.3027 24.4434C18.2303 24.4578 18.1587 24.4738 18.0871 24.4902C17.9567 24.5203 17.8278 24.5546 17.7003 24.593C17.6315 24.6134 17.5627 24.633 17.4947 24.6558C17.3543 24.703 17.2147 24.7566 17.0795 24.813C17.0291 24.8338 16.9783 24.853 16.9287 24.8734C16.7463 24.9534 16.5687 25.0434 16.3935 25.1414C16.3491 25.1662 16.3071 25.195 16.2631 25.2214C16.1339 25.2982 16.0067 25.3778 15.8827 25.4614C15.8215 25.5038 15.7627 25.5494 15.7027 25.5938C15.6427 25.6382 15.5799 25.6814 15.5211 25.7294V19.5214H36.3211V33.5214ZM36.3211 18.7214H15.5211V16.7214C15.5211 16.0586 16.0584 15.5214 16.7211 15.5214H17.5211V16.7214C17.5211 16.9423 17.7002 17.1214 17.9211 17.1214C18.142 17.1214 18.3211 16.9423 18.3211 16.7214V15.5214H21.5211V16.7214C21.5211 16.9423 21.7002 17.1214 21.9211 17.1214C22.142 17.1214 22.3211 16.9423 22.3211 16.7214V15.5214H25.5211V16.7214C25.5211 16.9423 25.7002 17.1214 25.9211 17.1214C26.142 17.1214 26.3211 16.9423 26.3211 16.7214V15.5214H29.5211V16.7214C29.5211 16.9423 29.7002 17.1214 29.9211 17.1214C30.142 17.1214 30.3211 16.9423 30.3211 16.7214V15.5214H33.5211V16.7214C33.5211 16.9423 33.7002 17.1214 33.9211 17.1214C34.142 17.1214 34.3211 16.9423 34.3211 16.7214V15.5214H35.1211C35.7838 15.5214 36.3211 16.0586 36.3211 16.7214V18.7214Z"
        fill="var(--icon-color, #000000)" />
    <path
        d="M19.5207 26.3207C19.2998 26.3207 19.1207 26.4998 19.1207 26.7207V30.3207H17.1207C16.8998 30.3207 16.7207 30.4998 16.7207 30.7207C16.7207 30.9416 16.8998 31.1207 17.1207 31.1207H19.5207C19.7416 31.1207 19.9207 30.9416 19.9207 30.7207V26.7207C19.9207 26.4998 19.7416 26.3207 19.5207 26.3207Z"
        fill="var(--icon-color, #000000)" />
    <path d="M33.4287 26.7236L28.3518 26.7236M33.4287 31.5819L29.7364 31.5819M33.4287 22.3511L24.1979 22.3511"
        stroke="var(--icon-color, #000000)" stroke-linecap="round" />
</svg>