<svg width="50" height="50" viewBox="0 0 50 50" fill="none" xmlns="http://www.w3.org/2000/svg">
    <path
        d="M46.813 42.6148H42.3574V15.1389C42.3574 14.7288 42.0249 14.3963 41.6148 14.3963H28.9907V4.74259C28.9907 4.3325 28.6582 4 28.2481 4H8.94074C8.53064 4 8.19815 4.3325 8.19815 4.74259V42.6148H3.74259C3.3325 42.6148 3 42.9473 3 43.3574C3 43.7675 3.3325 44.1 3.74259 44.1H46.813C47.2231 44.1 47.5556 43.7675 47.5556 43.3574C47.5556 42.9473 47.2231 42.6148 46.813 42.6148ZM27.5056 42.6148H9.68333V5.48519H27.5056V42.6148ZM40.8722 42.6148H28.9907V15.8815H40.8722V42.6148Z"
        fill="var(--icon-color, #000000)" />
    <path
        d="M32.7039 23.3074H37.1595C37.5696 23.3074 37.902 22.9749 37.902 22.5648V18.1093C37.902 17.6992 37.5696 17.3667 37.1595 17.3667H32.7039C32.2938 17.3667 31.9613 17.6992 31.9613 18.1093V22.5648C31.9613 22.9749 32.2938 23.3074 32.7039 23.3074ZM33.4465 18.8519H36.4169V21.8223H33.4465V18.8519Z"
        fill="var(--icon-color, #000000)" />
    <path
        d="M32.7039 30.7333H37.1595C37.5696 30.7333 37.902 30.4008 37.902 29.9908V25.5352C37.902 25.1251 37.5696 24.7926 37.1595 24.7926H32.7039C32.2938 24.7926 31.9613 25.1251 31.9613 25.5352V29.9908C31.9613 30.4008 32.2938 30.7333 32.7039 30.7333ZM33.4465 26.2778H36.4169V29.2482H33.4465V26.2778Z"
        fill="var(--icon-color, #000000)" />
    <path
        d="M32.7039 38.1592H37.1595C37.5696 38.1592 37.902 37.8268 37.902 37.4167V32.9611C37.902 32.551 37.5696 32.2185 37.1595 32.2185H32.7039C32.2938 32.2185 31.9613 32.551 31.9613 32.9611V37.4167C31.9613 37.8268 32.2938 38.1592 32.7039 38.1592ZM33.4465 33.7037H36.4169V36.6741H33.4465V33.7037Z"
        fill="var(--icon-color, #000000)" />
    <path
        d="M20.0796 23.3074H24.5351C24.9452 23.3074 25.2777 22.9749 25.2777 22.5648V18.1093C25.2777 17.6992 24.9452 17.3667 24.5351 17.3667H20.0796C19.6695 17.3667 19.337 17.6992 19.337 18.1093V22.5648C19.337 22.9749 19.6695 23.3074 20.0796 23.3074ZM20.8222 18.8519H23.7925V21.8223H20.8222V18.8519Z"
        fill="var(--icon-color, #000000)" />
    <path
        d="M20.0796 15.8814H24.5351C24.9452 15.8814 25.2777 15.5489 25.2777 15.1388V10.6833C25.2777 10.2732 24.9452 9.94067 24.5351 9.94067H20.0796C19.6695 9.94067 19.337 10.2732 19.337 10.6833V15.1388C19.337 15.5489 19.6695 15.8814 20.0796 15.8814ZM20.8222 11.4259H23.7925V14.3962H20.8222V11.4259Z"
        fill="var(--icon-color, #000000)" />
    <path
        d="M20.0796 30.7333H24.5351C24.9452 30.7333 25.2777 30.4008 25.2777 29.9908V25.5352C25.2777 25.1251 24.9452 24.7926 24.5351 24.7926H20.0796C19.6695 24.7926 19.337 25.1251 19.337 25.5352V29.9908C19.337 30.4008 19.6695 30.7333 20.0796 30.7333ZM20.8222 26.2778H23.7925V29.2482H20.8222V26.2778Z"
        fill="var(--icon-color, #000000)" />
    <path
        d="M20.0796 38.1592H24.5351C24.9452 38.1592 25.2777 37.8268 25.2777 37.4167V32.9611C25.2777 32.551 24.9452 32.2185 24.5351 32.2185H20.0796C19.6695 32.2185 19.337 32.551 19.337 32.9611V37.4167C19.337 37.8268 19.6695 38.1592 20.0796 38.1592ZM20.8222 33.7037H23.7925V36.6741H20.8222V33.7037Z"
        fill="var(--icon-color, #000000)" />
    <path
        d="M12.6534 23.3074H17.109C17.5191 23.3074 17.8516 22.9749 17.8516 22.5648V18.1093C17.8516 17.6992 17.5191 17.3667 17.109 17.3667H12.6534C12.2433 17.3667 11.9108 17.6992 11.9108 18.1093V22.5648C11.9108 22.9749 12.2433 23.3074 12.6534 23.3074ZM13.396 18.8519H16.3664V21.8223H13.396V18.8519Z"
        fill="var(--icon-color, #000000)" />
    <path
        d="M12.6534 15.8814H17.109C17.5191 15.8814 17.8516 15.5489 17.8516 15.1388V10.6833C17.8516 10.2732 17.5191 9.94067 17.109 9.94067H12.6534C12.2433 9.94067 11.9108 10.2732 11.9108 10.6833V15.1388C11.9108 15.5489 12.2433 15.8814 12.6534 15.8814ZM13.396 11.4259H16.3664V14.3962H13.396V11.4259Z"
        fill="var(--icon-color, #000000)" />
    <path
        d="M12.6534 30.7333H17.109C17.5191 30.7333 17.8516 30.4008 17.8516 29.9908V25.5352C17.8516 25.1251 17.5191 24.7926 17.109 24.7926H12.6534C12.2433 24.7926 11.9108 25.1251 11.9108 25.5352V29.9908C11.9108 30.4008 12.2433 30.7333 12.6534 30.7333ZM13.396 26.2778H16.3664V29.2482H13.396V26.2778Z"
        fill="var(--icon-color, #000000)" />
    <path
        d="M12.6534 38.1592H17.109C17.5191 38.1592 17.8516 37.8268 17.8516 37.4167V32.9611C17.8516 32.551 17.5191 32.2185 17.109 32.2185H12.6534C12.2433 32.2185 11.9108 32.551 11.9108 32.9611V37.4167C11.9108 37.8268 12.2433 38.1592 12.6534 38.1592ZM13.396 33.7037H16.3664V36.6741H13.396V33.7037Z"
        fill="var(--icon-color, #000000)" />
</svg>