<svg width="50" height="50" viewBox="0 0 50 50" fill="none" xmlns="http://www.w3.org/2000/svg">
    <path
        d="M47.7275 42.5781L40.0557 42.5781V33.8523C40.0557 31.5662 38.7048 29.4903 36.6076 28.5607L33.5196 27.2372C35.4625 26.6241 36.8135 24.7322 36.8135 22.697C36.8135 21.5865 36.4255 20.5384 35.6914 19.6656C34.7731 18.5752 34.2674 17.1895 34.2674 15.7634V12.9555C34.2674 10.4963 33.3096 8.18477 31.5707 6.44672C29.8318 4.70766 27.52 3.75 25.0611 3.75C19.9852 3.75 15.8557 7.87953 15.8557 12.9555V15.6719C15.856 17.1475 15.2761 18.556 14.3337 19.6914C13.1477 21.1203 12.9013 23.0523 13.6907 24.7333C14.2767 25.9811 15.3336 26.8776 16.5988 27.257L13.5324 28.5905C11.3811 29.4958 9.9909 31.5888 9.9909 33.9227V40.8204C9.9909 41.144 10.2532 41.4063 10.5768 41.4063C10.9005 41.4063 11.1628 41.144 11.1628 40.8204V33.9227C11.1628 32.0616 12.2713 30.3925 13.9933 29.6679L17.8369 27.9965V31.5234H16.0711C15.0425 31.5234 14.2146 32.4436 14.3231 33.4665L15.2889 42.5781H4.72754C4.40387 42.5781 4.1416 42.8405 4.1416 43.1641C4.1416 43.4877 4.40387 43.75 4.72754 43.75L47.7275 43.75C48.0512 43.75 48.3135 43.4877 48.3135 43.1641C48.3135 42.8405 48.0512 42.5781 47.7275 42.5781ZM34.7948 20.4202C35.3488 21.0787 35.6416 21.866 35.6416 22.6969C35.6416 24.6563 34.0254 26.2867 32.0659 26.2867H31.3023L30.2993 25.8568C29.4231 25.481 28.8237 24.6755 28.7012 23.7482C30.5091 22.7748 31.7409 20.8643 31.7409 18.6711V14.2662C32.1952 14.297 32.6482 14.2873 33.0956 14.2366V15.7633C33.0955 17.4652 33.6991 19.1191 34.7948 20.4202ZM25.2036 29.6702C23.1074 29.7073 21.027 29.4417 19.0088 28.882V27.4869L20.2276 26.957C21.3912 26.4511 22.2135 25.415 22.4628 24.2042C22.973 24.3526 23.5115 24.4337 24.069 24.4337H25.9783C26.5379 24.4337 27.0785 24.352 27.5904 24.2025C27.8479 25.4077 28.6733 26.4345 29.8375 26.9339L31.0379 27.4483V28.7668C29.1415 29.3318 27.1811 29.6357 25.2036 29.6702ZM31.0377 29.9868V31.5235H19.0088V30.0954C21.0379 30.6274 23.1254 30.8787 25.224 30.842C27.192 30.8076 29.1439 30.52 31.0377 29.9868ZM33.0955 13.055C31.4815 13.273 29.6622 12.8407 28.4088 11.8695C28.1531 11.6714 27.785 11.718 27.5868 11.9738C27.3886 12.2296 27.4353 12.5977 27.6911 12.7959C28.5105 13.4307 29.4989 13.8779 30.569 14.1034V17.2933C30.0664 18.4388 29.3803 18.9887 28.306 19.4869C28.0213 18.9312 27.4324 18.3148 26.7663 18.3148H25.3932C24.4461 18.3148 23.6756 19.0854 23.6756 20.0324C23.6756 20.9795 24.4461 21.75 25.3932 21.75H26.7663C27.5633 21.75 28.2352 21.2042 28.4281 20.4669C29.2119 20.1682 30.4903 19.513 30.4903 19.513C30.0935 21.6433 28.2219 23.2615 25.9784 23.2615H24.0689C21.5377 23.2615 19.4783 21.2022 19.4783 18.6709V14.1416C21.4684 13.8297 23.3485 13.1562 25.0727 12.1364C27.698 10.5835 29.382 8.5543 30.3982 6.95109C32.1371 8.49977 33.1262 10.72 33.0955 13.055ZM27.3118 20.0341C27.311 20.3343 27.0666 20.5783 26.7662 20.5783H25.3931C25.0921 20.5783 24.8474 20.3334 24.8474 20.0326C24.8474 19.7317 25.0922 19.4869 25.3931 19.4869H26.7662C27.0665 19.4869 27.3108 19.7307 27.3118 20.0308V20.0341ZM25.0611 4.92187C26.6498 4.92187 28.1679 5.38047 29.4652 6.23422C28.53 7.73336 26.9558 9.66117 24.4761 11.128C22.7749 12.1343 20.9089 12.7767 18.9296 13.0375H17.0275C17.0317 8.63395 20.6201 4.92187 25.0611 4.92187ZM14.7514 24.2352C14.1572 22.9697 14.3427 21.5154 15.2347 20.4407C16.354 19.0922 17.0288 17.4259 17.0275 15.6719V14.2094H18.3064V18.6711C18.3064 20.8655 19.5398 22.777 21.3493 23.7498C21.2361 24.6841 20.6386 25.5003 19.7603 25.8822L18.83 26.2867H17.9807C16.583 26.2867 15.3457 25.5006 14.7514 24.2352ZM35.1488 33.343L34.1698 42.5781H16.4674L15.4884 33.343C15.4529 33.0081 15.7345 32.6954 16.0711 32.6954H34.5661C34.9026 32.6954 35.1843 33.0081 35.1488 33.343ZM38.8838 42.5781H35.3482L36.3141 33.4666C36.4226 32.4437 35.5948 31.5235 34.5661 31.5235H32.2096V27.9506L36.1393 29.6349C37.8065 30.374 38.8838 32.0294 38.8838 33.8523V42.5781ZM25.3186 35.4102C24.0908 35.4102 23.092 36.409 23.092 37.6367C23.092 38.8645 24.0908 39.8633 25.3186 39.8633C26.5463 39.8633 27.5451 38.8645 27.5451 37.6367C27.5451 36.409 26.5463 35.4102 25.3186 35.4102ZM25.3186 38.6914C24.737 38.6914 24.2639 38.2183 24.2639 37.6367C24.2639 37.0552 24.737 36.582 25.3186 36.582C25.9001 36.582 26.3732 37.0552 26.3732 37.6367C26.3732 38.2183 25.9002 38.6914 25.3186 38.6914Z"
        fill="var(--icon-color, #000000)" />
</svg>