<svg width="50" height="50" viewBox="0 0 50 50" fill="none" xmlns="http://www.w3.org/2000/svg">
    <path
        d="M37.5891 22.3166C38.553 21.6393 39.1913 20.5125 39.1913 19.2425C39.1913 17.1649 37.511 15.4846 35.4333 15.4846C33.3557 15.4846 31.6754 17.1649 31.6754 19.2425C31.6754 20.5125 32.3071 21.6393 33.2776 22.3166C32.4504 22.6032 31.6949 23.0461 31.0566 23.6192C30.1774 22.8702 29.1418 22.2971 28.0086 21.9584C29.3828 21.1248 30.3077 19.6072 30.3077 17.8813C30.3077 15.2501 28.1779 13.1204 25.5467 13.1204C22.9155 13.1204 20.7858 15.2566 20.7858 17.8813C20.7858 19.6072 21.7041 21.1248 23.0848 21.9584C21.9646 22.2971 20.9421 22.8637 20.0693 23.5997C19.4311 23.0396 18.6886 22.6032 17.8745 22.3231C18.8384 21.6458 19.4767 20.5191 19.4767 19.249C19.4767 17.1714 17.7963 15.4911 15.7187 15.4911C13.6411 15.4911 11.9607 17.1714 11.9607 19.249C11.9607 20.5191 12.5925 21.6458 13.5629 22.3231C10.9773 23.2154 9.12109 25.6708 9.12109 28.556V28.9859C9.12109 28.9989 9.13412 29.0119 9.14715 29.0119H17.1125C17.0669 29.3701 17.0408 29.7414 17.0408 30.1126V30.5555C17.0408 32.4703 18.5909 34.0204 20.5057 34.0204H30.6007C32.5155 34.0204 34.0656 32.4703 34.0656 30.5555V30.1126C34.0656 29.7414 34.0396 29.3701 33.994 29.0119H42.0114C42.0244 29.0119 42.0374 28.9989 42.0374 28.9859V28.556C42.0244 25.6643 40.1747 23.2089 37.5891 22.3166ZM32.7174 19.236C32.7174 17.738 33.9354 16.5201 35.4333 16.5201C36.9313 16.5201 38.1492 17.738 38.1492 19.236C38.1492 20.7144 36.9574 21.9193 35.4854 21.9519C35.4659 21.9519 35.4529 21.9519 35.4333 21.9519C35.4138 21.9519 35.4008 21.9519 35.3812 21.9519C33.9028 21.9258 32.7174 20.721 32.7174 19.236ZM21.8148 17.8813C21.8148 15.8297 23.4821 14.1624 25.5337 14.1624C27.5853 14.1624 29.2526 15.8297 29.2526 17.8813C29.2526 19.8612 27.696 21.483 25.7486 21.5937C25.677 21.5937 25.6053 21.5937 25.5337 21.5937C25.462 21.5937 25.3904 21.5937 25.3188 21.5937C23.3714 21.483 21.8148 19.8612 21.8148 17.8813ZM12.9833 19.236C12.9833 17.738 14.2012 16.5201 15.6992 16.5201C17.1971 16.5201 18.415 17.738 18.415 19.236C18.415 20.7144 17.2232 21.9193 15.7513 21.9519C15.7317 21.9519 15.7187 21.9519 15.6992 21.9519C15.6796 21.9519 15.6666 21.9519 15.6471 21.9519C14.1751 21.9258 12.9833 20.721 12.9833 19.236ZM17.2948 27.9633H10.1762C10.4693 25.1888 12.8139 23.0135 15.6601 22.994C15.6731 22.994 15.6861 22.994 15.6992 22.994C15.7122 22.994 15.7252 22.994 15.7382 22.994C17.0929 23.0005 18.3304 23.502 19.2878 24.3161C18.3499 25.3321 17.653 26.5826 17.2948 27.9633ZM33.0105 30.5555C33.0105 31.8906 31.9229 32.9783 30.5877 32.9783H20.4927C19.1575 32.9783 18.0699 31.8906 18.0699 30.5555V30.1126C18.0699 26.0681 21.3003 22.7595 25.3188 22.6423C25.3904 22.6488 25.4686 22.6488 25.5402 22.6488C25.6118 22.6488 25.69 22.6488 25.7616 22.6423C29.7801 22.7595 33.0105 26.0681 33.0105 30.1126V30.5555ZM33.7856 27.9633C33.4274 26.5891 32.7435 25.3582 31.8121 24.3421C32.7761 23.5085 34.0265 23.007 35.3943 22.994C35.4073 22.994 35.4203 22.994 35.4333 22.994C35.4464 22.994 35.4594 22.994 35.4724 22.994C38.3186 23.0135 40.6632 25.1888 40.9563 27.9633H33.7856Z"
        fill="var(--icon-color, #000000)" />
</svg>