<svg width="14" height="14" viewBox="0 0 14 14" fill="none" xmlns="http://www.w3.org/2000/svg">
    <path
        d="M12.7213 2.12907C11.0191 0.426947 8.24941 0.426947 6.54712 2.12907L0.891079 7.78519C-0.297037 8.97339 -0.297037 10.9067 0.891079 12.0948C2.07911 13.2828 4.01235 13.2828 5.2006 12.0948L10.8567 6.43845C11.5307 5.76435 11.5306 4.66764 10.8567 3.99378C10.1904 3.32728 9.07834 3.32738 8.41194 3.99373L3.68775 8.71792C3.52754 8.8781 3.52754 9.13783 3.68775 9.29801C3.84793 9.45819 4.10767 9.45819 4.26785 9.29801L8.99201 4.57385C9.34211 4.2238 9.92647 4.22359 10.2765 4.57385C10.6306 4.9279 10.6306 5.50417 10.2765 5.85836L4.62055 11.5146C3.75223 12.3828 2.33945 12.3828 1.47123 11.5147C0.602985 10.6464 0.603012 9.23362 1.47123 8.36532L7.12727 2.7092C8.50964 1.32694 10.7589 1.32691 12.1412 2.70917C12.8109 3.37882 13.1797 4.26913 13.1797 5.21613C13.1797 6.16316 12.8109 7.0535 12.1412 7.72312L7.4172 12.4473C7.25699 12.6075 7.25699 12.8672 7.4172 13.0274C7.57738 13.1876 7.83714 13.1876 7.99727 13.0274L12.7213 8.30316C13.5459 7.47861 14.0001 6.38224 14 5.21608C14 4.04997 13.5459 2.95362 12.7213 2.12907Z"
        fill="#E94200" />
</svg>