<svg width="50" height="50" viewBox="0 0 50 50" fill="none" xmlns="http://www.w3.org/2000/svg">
    <path
        d="M43.7067 11.6158C43.6842 11.5945 39.2159 7.33329 39.2159 7.33329C39.0451 7.16939 38.8685 7 38.5386 7H20.5501C20.0247 7 19.5972 7.42742 19.5972 7.95284V10.8788L13.2572 11.9656C12.749 12.0548 12.4073 12.5411 12.4953 13.0488L12.8171 14.9249C10.7564 15.6184 8.64064 16.3332 6.59818 17.0669C6.11556 17.2434 5.86228 17.78 6.0345 18.2655L10.0974 29.5596C10.1791 29.7869 10.3933 29.9284 10.6217 29.9284C10.6843 29.9284 10.748 29.9178 10.8103 29.8954C11.0999 29.7912 11.2502 29.472 11.146 29.1824L7.14329 18.0553C9.06754 17.3664 11.0603 16.6921 13.0078 16.0366L14.9225 27.1991L17.1256 40.0546C17.2052 40.5084 17.6041 40.8313 18.0543 40.8313C18.1053 40.8313 18.157 40.8271 18.2089 40.8186L24.176 39.7946L28.8388 38.9953L21.8259 41.5159L16.2958 43.5043L12.0009 31.5584C11.8968 31.2688 11.5777 31.1185 11.288 31.2226C10.9984 31.3267 10.8481 31.6458 10.9522 31.9354L15.308 44.0511C15.4473 44.4321 15.8082 44.669 16.1897 44.669C16.2952 44.669 16.4022 44.6508 16.5065 44.6127L22.2028 42.5647L35.1373 37.9157L37.6083 37.4922H43.0668C43.5922 37.4922 44.0197 37.0638 44.0197 36.5372V12.2436C44.0198 11.9101 43.8388 11.74 43.7067 11.6158ZM42.2304 11.7477H39.4421L39.373 11.748C39.2395 11.7489 38.9269 11.7512 38.8477 11.6724C38.8294 11.6542 38.808 11.5935 38.808 11.4806L38.8015 8.47796L42.2304 11.7477ZM42.9054 36.3776H20.7117V25.518C20.7117 25.2103 20.4622 24.9608 20.1544 24.9608C19.8467 24.9608 19.5972 25.2103 19.5972 25.518V36.537C19.5972 37.0635 20.0247 37.492 20.5501 37.492H31.0119L23.9876 38.696L18.1939 39.6903L16.0209 27.0107L13.6234 13.0335L19.5972 12.0095V22.9325C19.5972 23.2403 19.8466 23.4897 20.1544 23.4897C20.4621 23.4897 20.7116 23.2403 20.7116 22.9325V8.11436H37.6863L37.6936 11.4819C37.6936 11.8901 37.8177 12.2202 38.0625 12.4633C38.4387 12.8368 38.9704 12.8628 39.3005 12.8628C39.3289 12.8628 39.3558 12.8626 39.381 12.8624L42.9054 12.8622V36.3776Z"
        fill="var(--icon-color, #000000)" />
    <path
        d="M23.3976 15.6522C23.3976 15.9599 23.6471 16.2094 23.9548 16.2094H39.8864C40.1942 16.2094 40.4437 15.9599 40.4437 15.6522C40.4437 15.3445 40.1942 15.095 39.8864 15.095H23.9548C23.6471 15.095 23.3976 15.3445 23.3976 15.6522Z"
        fill="var(--icon-color, #000000)" />
    <path
        d="M39.8864 19.0536H23.9548C23.6471 19.0536 23.3976 19.3031 23.3976 19.6108C23.3976 19.9185 23.6471 20.168 23.9548 20.168H39.8864C40.1942 20.168 40.4437 19.9185 40.4437 19.6108C40.4437 19.3031 40.1942 19.0536 39.8864 19.0536Z"
        fill="var(--icon-color, #000000)" />
    <path
        d="M39.8864 23.0121H23.9548C23.6471 23.0121 23.3976 23.2616 23.3976 23.5693C23.3976 23.877 23.6471 24.1265 23.9548 24.1265H39.8864C40.1942 24.1265 40.4437 23.877 40.4437 23.5693C40.4437 23.2616 40.1942 23.0121 39.8864 23.0121Z"
        fill="var(--icon-color, #000000)" />
    <path
        d="M39.8864 26.9707H23.9548C23.6471 26.9707 23.3976 27.2202 23.3976 27.5279C23.3976 27.8357 23.6471 28.0851 23.9548 28.0851H39.8864C40.1942 28.0851 40.4437 27.8357 40.4437 27.5279C40.4437 27.2202 40.1942 26.9707 39.8864 26.9707Z"
        fill="var(--icon-color, #000000)" />
    <path
        d="M39.8864 30.9294H23.9548C23.6471 30.9294 23.3976 31.1789 23.3976 31.4867C23.3976 31.7944 23.6471 32.0439 23.9548 32.0439H39.8864C40.1942 32.0439 40.4437 31.7944 40.4437 31.4867C40.4437 31.1789 40.1942 30.9294 39.8864 30.9294Z"
        fill="var(--icon-color, #000000)" />
</svg>