<svg width="12" height="14" viewBox="0 0 12 14" fill="none" xmlns="http://www.w3.org/2000/svg">
    <path
        d="M11.7081 6.64206C11.5136 6.45644 11.2776 6.36369 10.9997 6.36369H10.6665V4.45449C10.6665 3.23482 10.2083 2.18756 9.29158 1.31256C8.37493 0.43752 7.2779 0 5.99995 0C4.72202 0 3.62478 0.43752 2.7082 1.31252C1.79148 2.18756 1.33327 3.23478 1.33327 4.45449V6.36369H0.999979C0.722292 6.36369 0.486125 6.45644 0.29166 6.64206C0.0971958 6.82754 0 7.05297 0 7.31828V13.0455C0 13.3105 0.0972323 13.536 0.29166 13.7217C0.486125 13.9072 0.722292 14 0.999979 14H10.9999C11.2778 14 11.5138 13.9073 11.7083 13.7217C11.9026 13.536 12 13.3105 12 13.0455V7.31817C12.0001 7.05307 11.9026 6.82768 11.7081 6.64206ZM8.66659 6.36369H3.3333V4.45449C3.3333 3.75188 3.59376 3.15193 4.11459 2.65486C4.63548 2.15772 5.2639 1.9092 6.00006 1.9092C6.73628 1.9092 7.36455 2.15768 7.88549 2.65486C8.40616 3.1519 8.66659 3.75188 8.66659 4.45449V6.36369Z"
        fill="#E94200" />
</svg>