<?xml version="1.0" encoding="utf-8"?><svg viewBox="0 0 96 350" xmlns="http://www.w3.org/2000/svg" xmlns:xlink="http://www.w3.org/1999/xlink"><style>:root>svg{display:none}:root>svg:target{display:block}</style><svg fill="none" viewBox="0 0 50 50" id="icon-01" xmlns="http://www.w3.org/2000/svg"><path d="M15.511 22.002c0-.416.338-.754.755-.754H31.25a.755.755 0 010 1.51H16.266a.755.755 0 01-.755-.756zM15.511 27.822c0-.417.338-.755.755-.755h9.1a.755.755 0 010 1.51h-9.1a.755.755 0 01-.755-.755z" fill="var(--icon-color, #000000)"/><path d="M9.7 11.82a5.126 5.126 0 015.12-5.12h17.885a5.126 5.126 0 015.119 5.12v8.946a.755.755 0 11-1.51 0v-8.947c0-1.99-1.618-3.61-3.61-3.61H14.82a3.613 3.613 0 00-3.61 3.61v25.604c0 1.991 1.62 3.61 3.61 3.61h4.866a.755.755 0 010 1.51h-4.866a5.126 5.126 0 01-5.119-5.12V11.82z" fill="var(--icon-color, #000000)"/><path d="M15.511 16.183c0-.417.338-.755.755-.755H31.25a.755.755 0 010 1.51H16.266a.755.755 0 01-.755-.755zM39.622 34.056a1.313 1.313 0 100-2.625 1.313 1.313 0 000 2.625z" fill="var(--icon-color, #000000)"/><path d="M45.467 33.805c-.438-1.116-1.241-2.725-2.58-4.059-1.336-1.328-2.928-2.109-4.03-2.53a3.299 3.299 0 00-3.499.742l-3.222 3.207a3.284 3.284 0 00-.685 3.64c.17.38.353.753.55 1.112l-7.072 7.072a.82.82 0 00-.24.58v3.61c0 .454.367.821.82.821h3.61a.82.82 0 00.82-.82v-1.477h1.478a.82.82 0 00.82-.821v-1.477h1.477a.82.82 0 100-1.641h-2.297a.82.82 0 00-.82.82v1.477h-1.478a.82.82 0 00-.82.821v1.477h-1.97v-2.45l7.277-7.276a.82.82 0 00.121-1.006c-.284-.469-.545-.97-.776-1.489a1.633 1.633 0 01.343-1.81l3.222-3.207a1.655 1.655 0 011.756-.372c.953.364 2.326 1.035 3.457 2.16 1.137 1.133 1.83 2.526 2.21 3.496a1.63 1.63 0 01-.367 1.751l-3.26 3.246a1.652 1.652 0 01-1.807.352A10.642 10.642 0 0137.028 39a.82.82 0 00-.858 1.399c.54.331 1.113.624 1.705.87a3.289 3.289 0 003.594-.704l3.26-3.246a3.27 3.27 0 00.738-3.514z" fill="var(--icon-color, #000000)"/></svg><svg fill="none" viewBox="0 0 50 50" id="icon-02" xmlns="http://www.w3.org/2000/svg"><path d="M46.813 42.615h-4.456V15.139a.743.743 0 00-.742-.743H28.99V4.743A.743.743 0 0028.248 4H8.941a.743.743 0 00-.743.743v37.872H3.743a.743.743 0 000 1.485h43.07a.743.743 0 000-1.485zm-19.307 0H9.683V5.485h17.823v37.13zm13.366 0H28.991V15.882h11.881v26.733z" fill="var(--icon-color, #000000)"/><path d="M32.704 23.307h4.456c.41 0 .742-.332.742-.742v-4.456a.743.743 0 00-.742-.742h-4.456a.743.743 0 00-.743.742v4.456c0 .41.333.742.743.742zm.742-4.455h2.97v2.97h-2.97v-2.97zM32.704 30.733h4.456c.41 0 .742-.332.742-.742v-4.456a.743.743 0 00-.742-.742h-4.456a.743.743 0 00-.743.742v4.456c0 .41.333.742.743.742zm.742-4.455h2.97v2.97h-2.97v-2.97zM32.704 38.16h4.456c.41 0 .742-.333.742-.743V32.96a.743.743 0 00-.742-.742h-4.456a.743.743 0 00-.743.742v4.456c0 .41.333.742.743.742zm.742-4.456h2.97v2.97h-2.97v-2.97zM20.08 23.307h4.455c.41 0 .743-.332.743-.742v-4.456a.743.743 0 00-.743-.742H20.08a.743.743 0 00-.743.742v4.456c0 .41.332.742.743.742zm.742-4.455h2.97v2.97h-2.97v-2.97zM20.08 15.881h4.455c.41 0 .743-.332.743-.742v-4.456a.743.743 0 00-.743-.742H20.08a.743.743 0 00-.743.742v4.456c0 .41.332.742.743.742zm.742-4.455h2.97v2.97h-2.97v-2.97zM20.08 30.733h4.455c.41 0 .743-.332.743-.742v-4.456a.743.743 0 00-.743-.742H20.08a.743.743 0 00-.743.742v4.456c0 .41.332.742.743.742zm.742-4.455h2.97v2.97h-2.97v-2.97zM20.08 38.16h4.455c.41 0 .743-.333.743-.743V32.96a.743.743 0 00-.743-.742H20.08a.743.743 0 00-.743.742v4.456c0 .41.332.742.743.742zm.742-4.456h2.97v2.97h-2.97v-2.97zM12.653 23.307h4.456c.41 0 .743-.332.743-.742v-4.456a.743.743 0 00-.743-.742h-4.456a.743.743 0 00-.742.742v4.456c0 .41.332.742.742.742zm.743-4.455h2.97v2.97h-2.97v-2.97zM12.653 15.881h4.456c.41 0 .743-.332.743-.742v-4.456a.743.743 0 00-.743-.742h-4.456a.743.743 0 00-.742.742v4.456c0 .41.332.742.742.742zm.743-4.455h2.97v2.97h-2.97v-2.97zM12.653 30.733h4.456c.41 0 .743-.332.743-.742v-4.456a.743.743 0 00-.743-.742h-4.456a.743.743 0 00-.742.742v4.456c0 .41.332.742.742.742zm.743-4.455h2.97v2.97h-2.97v-2.97zM12.653 38.16h4.456c.41 0 .743-.333.743-.743V32.96a.743.743 0 00-.743-.742h-4.456a.743.743 0 00-.742.742v4.456c0 .41.332.742.742.742zm.743-4.456h2.97v2.97h-2.97v-2.97z" fill="var(--icon-color, #000000)"/></svg><svg fill="none" viewBox="0 0 50 50" id="icon-03" xmlns="http://www.w3.org/2000/svg"><path d="M43.707 11.616l-4.491-4.283c-.17-.164-.348-.333-.677-.333H20.55a.954.954 0 00-.953.953v2.926l-6.34 1.087a.94.94 0 00-.762 1.083l.322 1.876c-2.06.693-4.176 1.408-6.219 2.142a.943.943 0 00-.563 1.198l4.062 11.295a.557.557 0 101.049-.378L7.143 18.055a327.54 327.54 0 015.865-2.018l1.915 11.162 2.203 12.856a.944.944 0 001.083.764l5.967-1.024 4.663-.8-7.013 2.52-5.53 1.99L12 31.557a.557.557 0 00-1.049.377l4.356 12.116a.941.941 0 001.198.562l5.697-2.048 12.934-4.65 2.471-.423h5.459a.955.955 0 00.953-.955V12.244c0-.334-.181-.504-.313-.628zm-1.477.132H39.373c-.133 0-.446.003-.525-.076-.019-.018-.04-.079-.04-.191l-.007-3.003 3.43 3.27zm.675 24.63H20.712v-10.86a.557.557 0 00-1.115 0v11.019c0 .526.428.955.953.955h10.462l-7.024 1.204-5.794.994-2.173-12.68-2.398-13.977 5.974-1.024v10.924a.557.557 0 101.115 0V8.114h16.974l.008 3.368c0 .408.124.738.368.981.377.374.908.4 1.239.4h3.604v23.515z" fill="var(--icon-color, #000000)"/><path d="M23.398 15.652c0 .308.25.557.557.557h15.931a.557.557 0 100-1.114H23.955a.557.557 0 00-.557.557zM39.886 19.054H23.955a.557.557 0 000 1.114h15.931a.557.557 0 100-1.114zM39.886 23.012H23.955a.557.557 0 000 1.114h15.931a.557.557 0 100-1.114zM39.886 26.97H23.955a.557.557 0 000 1.115h15.931a.557.557 0 100-1.114zM39.886 30.93H23.955a.557.557 0 000 1.114h15.931a.557.557 0 100-1.115z" fill="var(--icon-color, #000000)"/></svg><svg fill="none" viewBox="0 0 50 50" id="icon-04" xmlns="http://www.w3.org/2000/svg"><path fill-rule="evenodd" clip-rule="evenodd" d="M12.578 10.25c0-.371.301-.672.672-.672h6.25c.371 0 .672.301.672.672v5c0 .371-.301.672-.672.672h-6.25a.672.672 0 01-.672-.672v-5zm6.25.672h-4.906v3.656h4.906v-3.656zM23.828 10.25c0-.371.301-.672.672-.672h6.25c.371 0 .672.301.672.672v5c0 .371-.301.672-.672.672H24.5a.672.672 0 01-.672-.672v-5zm6.25.672h-4.906v3.656h4.906v-3.656zM23.828 20.25c0-.371.301-.672.672-.672h6.25c.371 0 .672.301.672.672v5c0 .371-.301.672-.672.672H24.5a.672.672 0 01-.672-.672v-5zm6.25.672h-4.906v3.656h4.906v-3.656zM12.578 20.25c0-.371.301-.672.672-.672h6.25c.371 0 .672.301.672.672v5c0 .371-.301.672-.672.672h-6.25a.672.672 0 01-.672-.672v-5zm6.25.672h-4.906v3.656h4.906v-3.656z" fill="var(--icon-color, #000000)"/><path fill-rule="evenodd" clip-rule="evenodd" d="M7.5 5.172c0-.371.3-.672.672-.672H35.75c.371 0 .672.3.672.672v36.984h6.156v-4.984h-1.906A.672.672 0 0140 36.5v-8.75c0-1.744 1.485-3.172 3.25-3.172 1.763 0 3.25 1.426 3.25 3.172v8.75c0 .371-.3.672-.672.672h-1.906v4.984h1.906a.672.672 0 010 1.344H8.172a.672.672 0 01-.672-.672V5.172zm27.578.672H8.844v36.312h3.734V39a.672.672 0 011.344 0v3.156h3.656V35.25A4.427 4.427 0 0122 30.828a4.427 4.427 0 014.422 4.422v6.906h3.656V39a.672.672 0 011.344 0v3.156h3.656V5.844zm8.172 20.078c-.998 0-1.906.818-1.906 1.828v8.078h3.812V27.75c0-1.01-.908-1.828-1.906-1.828zM22 32.172a3.081 3.081 0 00-3.078 3.078v6.906h6.156V35.25A3.081 3.081 0 0022 32.172z" fill="var(--icon-color, #000000)"/></svg><svg fill="none" viewBox="0 0 50 50" id="icon-05" xmlns="http://www.w3.org/2000/svg"><path d="M38.223 26.869H19.225a.543.543 0 01-.528-.528c0-.28.248-.528.528-.528h18.998c.28 0 .528.248.528.528s-.248.528-.528.528zM38.223 22.69H19.225a.543.543 0 01-.528-.527c0-.28.248-.528.528-.528h18.998c.28 0 .528.248.528.528s-.248.528-.528.528zM30.306 18.513H19.225a.543.543 0 01-.528-.528c0-.28.248-.527.528-.527h11.081c.28 0 .528.248.528.527 0 .28-.248.528-.528.528zM30.306 14.334H19.225a.543.543 0 01-.528-.528c0-.28.248-.528.528-.528h11.081c.28 0 .528.248.528.528s-.248.528-.528.528zM28.723 40.965a5.585 5.585 0 110-11.17 5.585 5.585 0 010 11.17zm0-10.115a4.53 4.53 0 100 9.06 4.53 4.53 0 000-9.06z" fill="var(--icon-color, #000000)"/><path d="M27.41 37.32l-1.254-1.254a.543.543 0 01.007-.74.543.543 0 01.74-.006l.88.88 2.76-2.76c.2-.193.544-.19.74.006.196.196.199.54.006.74l-3.133 3.134a.543.543 0 01-.746 0z" fill="var(--icon-color, #000000)"/><path fill-rule="evenodd" clip-rule="evenodd" d="M33 8V5a1 1 0 00-1-1H11a1 1 0 00-1 1v33a1 1 0 001 1h4v5.418c0 .28.248.528.528.528H41.92a.537.537 0 00.53-.528v-27.45a.527.527 0 00-.154-.374l-8.445-8.44A.528.528 0 0033.478 8H33zM11 5h21v3H15.528a.543.543 0 00-.528.528V38h-4V5zm21.948 4.056H16.056V43.89h25.34V17.506h-7.92a.543.543 0 01-.528-.528V9.056zm7.71 7.394h-6.654V9.801l6.654 6.65z" fill="var(--icon-color, #000000)"/></svg><svg fill="none" viewBox="0 0 10 5" id="icon-arrow" xmlns="http://www.w3.org/2000/svg"><path d="M1 1l4 3.158L9 1" stroke="var(--icon-color, #727272)" stroke-width="var(--icon-stroke, 1.5)" stroke-miterlimit="10" stroke-linecap="round" stroke-linejoin="round"/></svg><svg fill="none" viewBox="0 0 20 17" id="icon-arrow-back" xmlns="http://www.w3.org/2000/svg"><path d="M5.947 8.895L2 4.947 5.947 1" stroke="#FC4C02" stroke-width="1.5" stroke-linecap="round" stroke-linejoin="round"/><path d="M9.895 16h3.158a5.526 5.526 0 000-11.053H2" stroke="#FC4C02" stroke-width="1.5" stroke-linecap="round" stroke-linejoin="round"/></svg><svg fill="none" viewBox="0 0 18 14" id="icon-arrow-full" xmlns="http://www.w3.org/2000/svg"><path d="M11 2l5 5-5 5M16 7.002L2 7" stroke="var(--icon-color, #727272)" stroke-width="var(--icon-stroke, 1.5)" stroke-miterlimit="10" stroke-linecap="round" stroke-linejoin="round"/></svg><svg fill="none" viewBox="0 0 16 16" id="icon-arrow-two" xmlns="http://www.w3.org/2000/svg"><path d="M10 2h4v4M6 14H2v-4M14 2L9.334 6.666M2 14l4.666-4.666" stroke="var(--icon-color, #727272)" stroke-width="1.5" stroke-miterlimit="10" stroke-linecap="round" stroke-linejoin="round"/></svg><svg fill="none" viewBox="0 0 50 50" id="icon-bell" xmlns="http://www.w3.org/2000/svg"><path d="M32.191 24.835v-2.337c0-3.41-2.266-6.299-5.37-7.243v-1.058A2.2 2.2 0 0024.622 12a2.2 2.2 0 00-2.197 2.197v1.058c-3.105.944-5.371 3.834-5.371 7.243v2.337a11.5 11.5 0 01-3.214 7.996.732.732 0 00.528 1.24h6.666A3.668 3.668 0 0024.623 37a3.668 3.668 0 003.588-2.93h6.666a.732.732 0 00.529-1.239 11.5 11.5 0 01-3.215-7.996zm-8.3-10.638a.733.733 0 011.465 0v.768a7.641 7.641 0 00-1.465 0v-.768zm.732 21.338a2.2 2.2 0 01-2.071-1.465h4.142a2.2 2.2 0 01-2.07 1.465zm-8.675-2.93a12.95 12.95 0 002.572-7.77v-2.337a6.11 6.11 0 016.103-6.104 6.11 6.11 0 016.104 6.104v2.337c0 2.829.903 5.534 2.571 7.77h-17.35zM34.145 22.498a.732.732 0 101.465 0c0-2.934-1.143-5.693-3.218-7.769a.732.732 0 00-1.036 1.036 9.46 9.46 0 012.789 6.733zM14.37 23.23a.733.733 0 00.732-.732 9.46 9.46 0 012.788-6.733.732.732 0 10-1.035-1.036 10.915 10.915 0 00-3.218 7.769c0 .404.328.732.732.732z" fill="var(--icon-color, #000000)"/></svg><svg fill="none" viewBox="0 0 50 50" id="icon-calendar" xmlns="http://www.w3.org/2000/svg"><path d="M35.121 14.721h-.8v-1.2a.4.4 0 00-.8 0v1.2h-3.2v-1.2a.4.4 0 00-.8 0v1.2h-3.2v-1.2a.4.4 0 00-.8 0v1.2h-3.2v-1.2a.4.4 0 00-.8 0v1.2h-3.2v-1.2a.4.4 0 00-.8 0v1.2h-.8a2.002 2.002 0 00-2 2v9.782a6.371 6.371 0 00.102 8.557c.111.124.229.242.353.353l.004.004h.002a6.37 6.37 0 008.557.104h11.382a2.002 2.002 0 002-2v-16.8a2.002 2.002 0 00-2-2zM23.344 34.83a5.612 5.612 0 11-7.622-8.24 5.612 5.612 0 017.622 8.24zm12.977-1.308a1.2 1.2 0 01-1.2 1.2H24.513c.049-.06.092-.124.138-.186.046-.062.085-.113.126-.172.089-.128.172-.26.251-.395.024-.04.05-.077.072-.116.098-.176.188-.356.27-.54.02-.047.037-.095.057-.142.058-.14.112-.28.16-.423.023-.067.042-.135.062-.203a7.61 7.61 0 00.15-.604c.027-.137.048-.275.065-.415.008-.064.019-.127.025-.192.02-.202.032-.406.032-.612a6.408 6.408 0 00-6.4-6.4c-.205 0-.41.013-.612.032-.064.007-.128.017-.192.025-.14.018-.277.04-.414.065a7.638 7.638 0 00-.603.15 6.292 6.292 0 00-.62.22l-.151.06c-.183.08-.36.17-.535.268-.045.025-.087.054-.13.08-.13.077-.257.157-.381.24-.061.043-.12.088-.18.133-.06.044-.123.087-.182.135v-6.208h20.8v14zm0-14.8h-20.8v-2a1.2 1.2 0 011.2-1.2h.8v1.2a.4.4 0 00.8 0v-1.2h3.2v1.2a.4.4 0 00.8 0v-1.2h3.2v1.2a.4.4 0 00.8 0v-1.2h3.2v1.2a.4.4 0 00.8 0v-1.2h3.2v1.2a.4.4 0 00.8 0v-1.2h.8a1.2 1.2 0 011.2 1.2v2z" fill="var(--icon-color, #000000)"/><path d="M19.52 26.32a.4.4 0 00-.4.4v3.6h-2a.4.4 0 000 .8h2.4a.4.4 0 00.4-.4v-4a.4.4 0 00-.4-.4z" fill="var(--icon-color, #000000)"/><path d="M33.429 26.724h-5.077m5.077 4.858h-3.693m3.693-9.23h-9.231" stroke="var(--icon-color, #000000)" stroke-linecap="round"/></svg><svg fill="none" viewBox="0 0 50 51" id="icon-calendar-31" xmlns="http://www.w3.org/2000/svg"><path d="M34.955 15.06h-20.91c-.577 0-1.045.468-1.045 1.045v20.91c0 .577.468 1.045 1.046 1.045h20.909c.577 0 1.045-.468 1.045-1.045v-20.91c0-.577-.468-1.045-1.045-1.045zM30.48 13.22v4.6M18.52 13.22v4.6M13 21.5h23" stroke="var(--icon-color, #000000)" stroke-width="1.2" stroke-linecap="round" stroke-linejoin="round"/><path d="M19.44 27.02h3.68l-2.103 2.477c.346 0 .686.08.991.234.305.153.565.375.757.646a1.878 1.878 0 01.195 1.859 1.994 1.994 0 01-.608.774 2.16 2.16 0 01-.924.412c-.339.064-.69.047-1.02-.047a2.132 2.132 0 01-.877-.494M26.8 28.506l1.84-1.486v6.44" stroke="var(--icon-color, #000000)" stroke-width="1.2" stroke-linecap="round" stroke-linejoin="round"/></svg><svg fill="none" viewBox="0 0 20 20" id="icon-camera" xmlns="http://www.w3.org/2000/svg"><circle cx="10" cy="10" r="3.5" stroke="#E94200"/></svg><svg fill="none" viewBox="0 0 50 50" id="icon-cat" xmlns="http://www.w3.org/2000/svg"><path d="M36.16 19.835a.7.7 0 00-.63-.401h-.547a.7.7 0 00-.632.401.7.7 0 00.096.742l.273.328a.695.695 0 001.072 0l.273-.328a.7.7 0 00.096-.742zM33.389 17.391a.61.61 0 00-.428.178.609.609 0 00.428 1.034.608.608 0 00.428-1.034.61.61 0 00-.428-.178zM37.124 18.602a.607.607 0 00.605-.605.61.61 0 00-.605-.606.611.611 0 00-.429.178.61.61 0 000 .856.608.608 0 00.429.177z" fill="var(--icon-color, #000000)"/><path d="M37.067 23.675A5.082 5.082 0 0041 18.732a5.084 5.084 0 00-.955-2.962 6.212 6.212 0 00.078-2.417 1.107 1.107 0 00-.563-.793 1.107 1.107 0 00-.971-.049c-.687.293-1.306.7-1.843 1.214a5.064 5.064 0 00-.82-.067h-1.34a5.07 5.07 0 00-.813.066 6.132 6.132 0 00-1.843-1.213 1.107 1.107 0 00-.971.05 1.107 1.107 0 00-.564.792 6.18 6.18 0 00.077 2.41c-.231.32-.423.665-.573 1.028h-8.556c-1.23 0-2.416.26-3.524.774a.605.605 0 00.51 1.099A7.103 7.103 0 0121.343 18h8.223a5.08 5.08 0 005.02 5.804h1.2a6.16 6.16 0 01-2.918 3.668l-.32-.686a.606.606 0 00-1.098.513l1.635 3.492c.03.063.07.12.119.17l.705.71c.164.166.112.35.082.421a.374.374 0 01-.357.238h-1.721s-6.55-8.484-6.566-8.5a4.846 4.846 0 00-3.796-1.833.606.606 0 000 1.21 3.647 3.647 0 013.643 3.644 3.66 3.66 0 01-1.483 2.933.605.605 0 00.359 1.093h.962c.924 0 1.709.613 1.968 1.453h-5.657c-3.951 0-7.165-3.214-7.165-7.165 0-1.046.22-2.054.654-2.997a.605.605 0 10-1.1-.507 8.309 8.309 0 00-.765 3.504c0 .77.104 1.514.3 2.223A4.904 4.904 0 0010 31.998a4.89 4.89 0 004.885 4.884H31.11a.606.606 0 00.605-.605 3.932 3.932 0 00-1.106-2.736h3.024c.657 0 1.222-.377 1.475-.983a1.573 1.573 0 00-.34-1.74l-.632-.636-.754-1.611a7.368 7.368 0 003.684-4.897zm-6.344-4.943c0-.892.311-1.762.877-2.45a.606.606 0 00.114-.551 4.99 4.99 0 01-.143-2.055 4.937 4.937 0 011.56 1.12.605.605 0 00.577.174c.29-.067.585-.101.878-.101h1.34c.295 0 .592.034.883.103.21.049.43-.018.579-.176a4.937 4.937 0 011.56-1.12 4.973 4.973 0 01-.12 1.973.606.606 0 00.084.632c.566.689.877 1.559.877 2.45a3.867 3.867 0 01-3.863 3.863h-1.34a3.867 3.867 0 01-3.863-3.862zM25.48 29.698a4.877 4.877 0 00.914-2.535l3.989 5.168h-2.138a3.278 3.278 0 00-2.765-2.634zm-10.595 5.974a3.678 3.678 0 01-3.674-3.674 3.688 3.688 0 012.461-3.469c1.298 2.949 4.248 5.013 7.67 5.013h6.427c1.3 0 2.392.912 2.669 2.13H14.885z" fill="var(--icon-color, #000000)"/><path d="M15.842 20.283a.609.609 0 00.429-1.034.611.611 0 00-.429-.177.611.611 0 00-.428.177.61.61 0 000 .856.611.611 0 00.428.178z" fill="var(--icon-color, #000000)"/></svg><svg fill="none" viewBox="0 0 14 14" id="icon-clip" xmlns="http://www.w3.org/2000/svg"><path d="M12.721 2.13a4.37 4.37 0 00-6.174 0L.891 7.784a3.05 3.05 0 000 4.31 3.051 3.051 0 004.31 0l5.656-5.657a1.73 1.73 0 000-2.444 1.745 1.745 0 00-2.445 0L3.688 8.718a.41.41 0 10.58.58l4.724-4.724a.917.917 0 011.284 0 .91.91 0 010 1.284l-5.655 5.657a2.23 2.23 0 01-3.15 0 2.23 2.23 0 010-3.15L7.127 2.71a3.55 3.55 0 015.014 0c.67.67 1.039 1.56 1.039 2.507 0 .947-.37 1.837-1.039 2.507l-4.724 4.724a.41.41 0 10.58.58l4.724-4.724A4.337 4.337 0 0014 5.216a4.337 4.337 0 00-1.279-3.087z" fill="#E94200"/></svg><svg fill="none" viewBox="0 0 14 14" id="icon-cross" xmlns="http://www.w3.org/2000/svg"><path d="M9.001 9.001L5 5M5.001 9.001L9.002 5" stroke="var(--icon-color, #ffffff)" stroke-linecap="round"/></svg><svg fill="none" viewBox="0 0 50 50" id="icon-doc" xmlns="http://www.w3.org/2000/svg"><path d="M35.918 12.71h-2.13v-2.132a.453.453 0 00-.438-.438H19.215a.448.448 0 00-.31.13l-5.183 5.188a.45.45 0 00-.129.31v21.087a.45.45 0 00.437.437h2.131v2.132c0 .23.208.438.438.438h19.32c.229 0 .437-.208.437-.438V13.148a.453.453 0 00-.438-.438zm-17.139-1.076v3.696h-3.694l3.694-3.696zm-4.312 4.571h4.748c.23 0 .438-.208.438-.437v-.679h9.72a.45.45 0 00.437-.437.45.45 0 00-.437-.438h-9.72v-3.199h13.26v25.402H14.467V16.205zm21.014 22.782H17.035v-1.695H33.35c.23 0 .437-.208.437-.437v-23.27h1.694v25.402z" fill="var(--icon-color, #000000)"/><path d="M18.008 21.133h11.365a.45.45 0 00.437-.438.45.45 0 00-.437-.437H18.007a.45.45 0 00-.437.437.45.45 0 00.438.438zM18.008 24.154h11.365a.45.45 0 00.437-.437.45.45 0 00-.437-.438H18.007a.45.45 0 00-.437.438.45.45 0 00.438.437zM18.008 27.177h11.365a.45.45 0 00.437-.437.45.45 0 00-.437-.438H18.007a.45.45 0 00-.437.438.45.45 0 00.438.438zM18.008 30.198h11.365a.45.45 0 00.437-.438.45.45 0 00-.437-.438H18.007a.45.45 0 00-.437.438.45.45 0 00.438.438zM18.008 33.22h11.365a.45.45 0 00.437-.438.45.45 0 00-.437-.438H18.007a.45.45 0 00-.437.438.45.45 0 00.438.437zM18.008 18.111h11.365a.45.45 0 00.437-.437.45.45 0 00-.437-.438H18.007a.45.45 0 00-.437.438.45.45 0 00.438.437z" fill="var(--icon-color, #000000)"/></svg><svg fill="none" viewBox="0 0 20 20" id="icon-download" xmlns="http://www.w3.org/2000/svg"><path d="M10 2v10.375M7 10.5l3 3 3-3M2.75 15.5v2.731H17V15.5" stroke="var(--icon-color, #BEBEBE)" stroke-width="1.5" stroke-linecap="round" stroke-linejoin="round"/></svg><svg fill="none" viewBox="0 0 26 27" id="icon-info" xmlns="http://www.w3.org/2000/svg"><path d="M13.081 1A12.088 12.088 0 002.014 8.231a12.063 12.063 0 002.191 13.03l-.673 4.341a.475.475 0 00.689.495l3.894-2.015a11.98 11.98 0 004.967 1.065c3.205 0 6.278-1.273 8.544-3.537a12.068 12.068 0 000-17.074A12.088 12.088 0 0013.08 1zm0 23.195a11.038 11.038 0 01-4.779-1.073.476.476 0 00-.422.008l-3.27 1.692.565-3.643a.475.475 0 00-.127-.402A11.118 11.118 0 019.981 2.391a11.139 11.139 0 0112.952 5.515 11.115 11.115 0 01-2.817 13.784 11.136 11.136 0 01-7.04 2.506l.005-.001z" fill="var(--icon-color, #BEBEBE)"/><path d="M12.905 4.346a2.156 2.156 0 00-2.114 2.573 2.154 2.154 0 003.906.776 2.152 2.152 0 00-1.792-3.349zm0 3.493a1.342 1.342 0 01-.949-2.288 1.342 1.342 0 011.897 1.896 1.343 1.343 0 01-.948.392zM15.664 18.105h-.5v-7.213a.44.44 0 00-.44-.44h-4.226a.44.44 0 00-.44.44v1.462a.44.44 0 00.44.44H11v5.311h-.502a.44.44 0 00-.44.44v1.461a.44.44 0 00.44.44h5.167a.44.44 0 00.44-.44v-1.461a.439.439 0 00-.44-.44zm-.44 1.462h-4.286v-.582h.502a.44.44 0 00.44-.44V12.36a.44.44 0 00-.44-.44h-.502v-.582h3.345v7.213a.44.44 0 00.44.44h.501v.576z" fill="var(--icon-color, #BEBEBE)"/></svg><svg fill="none" viewBox="0 0 50 50" id="icon-key" xmlns="http://www.w3.org/2000/svg"><path fill-rule="evenodd" clip-rule="evenodd" d="M30.016 32.356l-1.366-1.798v-.815l-.638.183a9.317 9.317 0 01-5.471-.101l-.292-.096L12.19 39.788H7.522L4.264 36.53l2.857-2.857 2.237-.305.306-2.238 1.916-1.916 2.237-.305.306-2.238 2.534-2.534-.096-.292a9.298 9.298 0 012.276-9.502 9.345 9.345 0 013.064-2.046l.31-.127V9.875c0-3.06 2.49-5.55 5.55-5.55 2.7 0 4.956 1.94 5.448 4.5l.07.361.366.041c4.66.519 8.297 4.483 8.297 9.28a9.298 9.298 0 01-5.11 8.328l-.274.139v14.225l-3.3 3.301h-4.609v-4.04l1.367-1.798-1.366-1.798v-2.71l1.366-1.798zM27.76 5.738a4.141 4.141 0 00-4.137 4.137v1.888l.566-.075c.694-.093 1.39-.093 2.087-.045 1.424-1.257 3.125-2.115 5.017-2.382l.588-.083-.182-.565a4.143 4.143 0 00-3.94-2.875zm4.137 7.893v-3.04l-.581.095c-3.76.617-6.639 3.888-6.639 7.82a7.9 7.9 0 004.944 7.346l.44.179v4.05l1.727 2.275-1.727 2.274v1.758l1.727 2.274-1.727 2.274v2.151h2.61l2.474-2.473V26.031c3.146-1.279 5.383-4.017 5.383-7.524 0-3.933-2.878-7.204-6.638-7.82l-.58-.096v3.04c1.306.477 2.317 1.48 2.317 2.961a3.028 3.028 0 01-3.024 3.024 3.028 3.028 0 01-3.024-3.024c0-1.48 1.01-2.484 2.318-2.961zm-7.412.264l.536-.94-1.063.2a7.884 7.884 0 00-4.123 2.187 7.9 7.9 0 00-1.698 8.69l.185.437-2.865 2.864-.386 2.83-2.83.386L11 31.793l-.386 2.829-2.83.386-1.521 1.522 1.845 1.845h3.498l10.312-10.312.438.185c1.92.81 4.06.832 5.977.079l.317-.466v-.887l-.274-.139a9.298 9.298 0 01-5.11-8.328c0-1.677.445-3.25 1.221-4.612zm8.118 1.086c-.889 0-1.611.722-1.611 1.611s.722 1.611 1.61 1.611a1.612 1.612 0 000-3.222z" fill="var(--icon-color, #000000)"/></svg><svg fill="none" viewBox="0 0 12 14" id="icon-lock" xmlns="http://www.w3.org/2000/svg"><path d="M11.708 6.642A.988.988 0 0011 6.364h-.334v-1.91c0-1.22-.458-2.266-1.374-3.141C8.375.438 7.278 0 6 0S3.625.438 2.708 1.313c-.917.875-1.375 1.922-1.375 3.141v1.91H1a.988.988 0 00-.708.278.9.9 0 00-.292.676v5.728a.9.9 0 00.292.676c.194.185.43.278.708.278h10a.988.988 0 00.708-.278.9.9 0 00.292-.676V7.318a.9.9 0 00-.292-.676zm-3.041-.278H3.333v-1.91c0-.702.26-1.302.782-1.8A2.632 2.632 0 016 1.91c.736 0 1.365.249 1.885.746.521.497.782 1.097.782 1.8v1.909z" fill="#E94200"/></svg><svg fill="none" viewBox="0 0 20 18" id="icon-message" xmlns="http://www.w3.org/2000/svg"><path d="M18 1H2a1 1 0 00-1 1v14.792a.1.1 0 00.162.078L4.75 14H18a1 1 0 001-1V2a1 1 0 00-1-1z" stroke="var(--icon-color, #E94200)" stroke-width="1.2"/></svg><svg fill="none" viewBox="0 0 50 50" id="icon-passport" xmlns="http://www.w3.org/2000/svg"><path d="M33.86 11.735h-.289V9.82c0-.558-.25-1.077-.686-1.424a1.811 1.811 0 00-1.541-.35l-16.17 3.71-.004.001c-.663.12-1.169.7-1.169 1.397v8.272a.5.5 0 10.998 0v-8.272c0-.233.19-.422.422-.422h12.116a.5.5 0 100-.999h-7.802L31.567 9.02c.246-.056.5.002.696.159.197.157.31.391.31.643v1.913h-3.04a.499.499 0 100 .998h4.327c.74 0 1.343.603 1.343 1.344V34.7a.5.5 0 10.998 0V14.076c0-1.291-1.05-2.341-2.341-2.341zM35.7 36.198a.499.499 0 00-.498.5v2.96c0 .742-.603 1.344-1.343 1.344H15.42a.423.423 0 01-.422-.422V23.423a.5.5 0 00-.998 0V40.58c0 .783.637 1.42 1.42 1.42H33.86c1.29 0 2.34-1.05 2.34-2.341v-2.962c0-.275-.222-.499-.498-.499z" fill="var(--icon-color, #000000)"/><path d="M19.245 33.301h11.71a.5.5 0 000-.998h-11.71a.499.499 0 100 .998zM21.455 35.2a.5.5 0 100 .998h7.29a.499.499 0 100-.998h-7.29zM21.968 22.835c.115.114.3.114.415 0l1.048-1.048 2.066 2.066a2.78 2.78 0 001.326-.733c.11-.11.21-.23.297-.355l-2.334-2.334 1.362-1.362a.293.293 0 00-.207-.5h-2.51a.292.292 0 00-.207.086l-2.51 2.51a.293.293 0 000 .415l1.254 1.255zM29.56 25.204a5.042 5.042 0 01-1.412 1.3l.41.41a.292.292 0 00.415 0l.942-.941a.293.293 0 000-.415l-.355-.354z" fill="var(--icon-color, #000000)"/><path d="M30 22c0-3.556-2.982-4.797-3.665-4.989a.293.293 0 00-.232.532c.02.013 2.056 1.282 2.056 3.83 0 1.552-1.299 3.158-3.472 3.158-1.284 0-2.31-.862-2.32-.87a.293.293 0 00-.398.015l-1.883 1.883a.293.293 0 000 .414l.942.941a.292.292 0 00.414 0l1.086-1.086c.444.275 1.532.858 2.786.858C28.166 26.686 30 24.522 30 22z" fill="var(--icon-color, #000000)"/></svg><svg fill="none" viewBox="0 0 50 50" id="icon-people" xmlns="http://www.w3.org/2000/svg"><path d="M37.59 22.317a3.755 3.755 0 00-2.156-6.832 3.755 3.755 0 00-2.156 6.832 6.513 6.513 0 00-2.221 1.302 8.426 8.426 0 00-3.048-1.66 4.771 4.771 0 002.299-4.078c0-2.63-2.13-4.76-4.761-4.76a4.763 4.763 0 00-2.462 8.837 8.496 8.496 0 00-3.016 1.642 6.565 6.565 0 00-2.194-1.277 3.755 3.755 0 00-2.156-6.832 3.755 3.755 0 00-2.156 6.832 6.597 6.597 0 00-4.442 6.233v.43c0 .013.013.026.026.026h7.966c-.046.358-.072.73-.072 1.1v.444a3.463 3.463 0 003.465 3.464H30.6a3.463 3.463 0 003.465-3.465v-.442c0-.372-.026-.743-.072-1.101h8.017a.028.028 0 00.026-.026v-.43a6.622 6.622 0 00-4.448-6.24zm-4.873-3.081a2.718 2.718 0 012.716-2.716 2.718 2.718 0 012.716 2.716 2.725 2.725 0 01-2.664 2.716h-.104a2.712 2.712 0 01-2.664-2.716zm-10.902-1.355a3.722 3.722 0 013.719-3.719 3.722 3.722 0 013.719 3.72 3.724 3.724 0 01-3.504 3.712h-.43a3.724 3.724 0 01-3.504-3.713zm-8.832 1.355A2.718 2.718 0 0115.7 16.52a2.718 2.718 0 012.716 2.716 2.725 2.725 0 01-2.664 2.716h-.104a2.716 2.716 0 01-2.664-2.716zm4.312 8.727h-7.119c.293-2.774 2.638-4.95 5.484-4.969h.078a5.507 5.507 0 013.55 1.322 8.551 8.551 0 00-1.993 3.647zm15.715 2.592a2.427 2.427 0 01-2.422 2.423H20.493a2.427 2.427 0 01-2.423-2.423v-.442c0-4.045 3.23-7.354 7.249-7.47.071.006.15.006.221.006.072 0 .15 0 .222-.007 4.018.117 7.248 3.426 7.248 7.47v.444zm.776-2.592a8.53 8.53 0 00-1.974-3.62 5.534 5.534 0 013.582-1.349h.078c2.847.02 5.191 2.195 5.484 4.97h-7.17z" fill="var(--icon-color, #000000)"/></svg><svg fill="none" viewBox="0 0 50 50" id="icon-person" xmlns="http://www.w3.org/2000/svg"><path d="M25.24 25.052h.16c1.456-.025 2.634-.537 3.504-1.516 1.913-2.157 1.595-5.854 1.56-6.207-.124-2.65-1.377-3.916-2.41-4.508-.77-.442-1.67-.68-2.674-.7h-.085c-.551 0-1.635.089-2.673.68-1.044.592-2.317 1.859-2.44 4.528-.035.353-.354 4.05 1.56 6.207.865.98 2.043 1.491 3.499 1.516zm-3.732-7.599c0-.015.005-.03.005-.04.164-3.563 2.694-3.946 3.777-3.946h.06c1.342.03 3.623.577 3.777 3.946 0 .015 0 .03.005.04.005.035.353 3.415-1.227 5.194-.627.706-1.462 1.053-2.56 1.063h-.05c-1.093-.01-1.933-.358-2.554-1.063-1.576-1.77-1.238-5.164-1.233-5.194zM35.534 32.185v-.015c0-.04-.005-.08-.005-.124-.03-.984-.094-3.285-2.251-4.02-.015-.006-.035-.01-.05-.016-2.241-.571-4.105-1.863-4.125-1.878a.67.67 0 10-.77 1.098c.084.06 2.062 1.436 4.537 2.073 1.158.412 1.287 1.65 1.322 2.783 0 .045 0 .084.005.124.005.447-.025 1.138-.104 1.536-.805.457-3.961 2.037-8.762 2.037-4.781 0-7.957-1.585-8.767-2.042-.08-.398-.115-1.089-.105-1.536 0-.04.005-.08.005-.124.035-1.133.164-2.37 1.322-2.783 2.475-.636 4.453-2.018 4.538-2.073a.67.67 0 10-.77-1.098c-.02.015-1.874 1.307-4.125 1.879-.02.004-.035.01-.05.014-2.157.74-2.222 3.042-2.252 4.021 0 .045 0 .085-.005.124v.015c-.005.259-.01 1.586.254 2.252.05.129.14.238.258.313.15.1 3.723 2.375 9.702 2.375s9.552-2.28 9.701-2.375a.666.666 0 00.259-.313c.248-.661.243-1.988.238-2.247z" fill="var(--icon-color, #000000)"/></svg><svg fill="none" viewBox="0 0 50 50" id="icon-plan" xmlns="http://www.w3.org/2000/svg"><path d="M13.621 14.211a.59.59 0 01.591-.59H36.03a.59.59 0 01.591.59V36.03c0 .327-.265.591-.59.591h-2.91a.591.591 0 010-1.181h2.318v-5.364h-8.136a.591.591 0 010-1.182h8.136v-14.09h-7.545v5.363h4.5a.59.59 0 110 1.182h-5.091a.591.591 0 01-.591-.591v-5.955h-11.91v9h6.092v-4.5a.591.591 0 011.182 0v10.182a.59.59 0 11-1.182 0v-4.5h-6.091V35.44h11.773a.59.59 0 110 1.181H14.212a.591.591 0 01-.59-.59V14.21z" fill="var(--icon-color, #000000)"/></svg><svg fill="none" viewBox="0 0 50 50" id="icon-pointer" xmlns="http://www.w3.org/2000/svg"><path d="M32.184 20.11h-.04a2.21 2.21 0 00-1.479.556c-.328-.898-1.163-1.543-2.14-1.543-.6.004-1.173.247-1.588.674-.382-.763-1.148-1.281-2.028-1.281h-.043a2.1 2.1 0 00-1.305.43v-5.441c0-1.315-1.037-2.385-2.298-2.385-1.26 0-2.291 1.07-2.292 2.383l-.01 10.795-.62-.742a3.133 3.133 0 00-2.204-1.144 3.094 3.094 0 00-2.3.804l-.539.44c-.174.143-.119.582-.119.582l5.234 9.934c.957 1.816 2.778 2.948 4.752 2.948h5.898v-.005c2.991 0 5.416-2.562 5.419-5.709.001-1.407-.004-2.457-.003-3.307.003-2.275 0-3.115-.005-5.621-.003-1.312-1.033-2.367-2.29-2.367zm1.33 7.986l-.003 3.312c-.003 2.626-2.01 4.767-4.476 4.767h-5.87c-1.616 0-3.111-.938-3.903-2.44l-5.056-9.592.25-.206.018-.016a2.14 2.14 0 011.595-.566 2.18 2.18 0 011.532.801l1.465 1.76c.128.154.34.212.53.145a.473.473 0 00.318-.444l.009-12.113c0-.794.608-1.439 1.34-1.439.733 0 1.34.646 1.34 1.44V24.04c0 .26.215.472.479.472a.476.476 0 00.479-.472v-3.217c0-.765.591-1.363 1.305-1.363h.043c.733 0 1.343.63 1.343 1.425v2.857c0 .26.214.472.479.472a.476.476 0 00.478-.472V21.5c0-.794.581-1.44 1.318-1.44.733 0 1.314.646 1.314 1.44v2.115c0 .26.214.472.479.472a.476.476 0 00.478-.472V22.47c0-.794.613-1.416 1.346-1.416h.04c.731 0 1.327.632 1.329 1.424.006 2.505.005 3.343.002 5.617z" fill="var(--icon-color, #000000)"/></svg><svg fill="none" viewBox="0 0 50 50" id="icon-points" xmlns="http://www.w3.org/2000/svg"><path d="M15.921 26.512A1.876 1.876 0 0016.875 30c.815 0 1.51-.523 1.767-1.25H23.5c1.034 0 1.875.841 1.875 1.875A1.877 1.877 0 0123.5 32.5H16a3.129 3.129 0 00-3.125 3.125A3.129 3.129 0 0016 38.75h6.25a.625.625 0 100-1.25H16a1.877 1.877 0 01-1.875-1.875c0-1.034.841-1.875 1.875-1.875h7.5a3.129 3.129 0 003.125-3.125A3.129 3.129 0 0023.5 27.5h-4.858a1.884 1.884 0 00-.814-.988l4.774-7.833a6.845 6.845 0 001.148-3.804A6.883 6.883 0 0016.875 8 6.883 6.883 0 0010 14.875c0 1.36.397 2.675 1.148 3.804l4.774 7.833zm.954 2.238a.626.626 0 11.001-1.251.626.626 0 01-.001 1.251zm0-19.5a5.631 5.631 0 015.625 5.625 5.599 5.599 0 01-.959 3.143l-4.666 7.656-4.68-7.678a5.599 5.599 0 01-.945-3.121 5.631 5.631 0 015.625-5.625z" fill="var(--icon-color, #000000)"/><path d="M16.875 18A3.129 3.129 0 0020 14.875a3.129 3.129 0 00-3.125-3.125 3.129 3.129 0 00-3.125 3.125A3.129 3.129 0 0016.875 18zm0-5c1.034 0 1.875.841 1.875 1.875a1.877 1.877 0 01-1.875 1.875A1.877 1.877 0 0115 14.875c0-1.034.841-1.875 1.875-1.875zM35.125 18.375a6.883 6.883 0 00-6.875 6.875c0 1.362.398 2.68 1.151 3.81l4.756 7.46a1.884 1.884 0 00-.8.98h-5.482a.625.625 0 100 1.25h5.483c.258.727.952 1.25 1.767 1.25a1.876 1.876 0 00.968-3.48l4.756-7.46A6.846 6.846 0 0042 25.25a6.883 6.883 0 00-6.875-6.875zm0 20.375a.626.626 0 11.001-1.251.626.626 0 01-.001 1.251zm4.68-10.38c-.002.005-4.68 7.342-4.68 7.342l-4.68-7.341a5.599 5.599 0 01-.945-3.121 5.631 5.631 0 015.625-5.625 5.631 5.631 0 015.625 5.625 5.599 5.599 0 01-.945 3.12z" fill="var(--icon-color, #000000)"/><path d="M35.125 22.125A3.129 3.129 0 0032 25.25a3.129 3.129 0 003.125 3.125 3.129 3.129 0 003.125-3.125 3.129 3.129 0 00-3.125-3.125zm0 5a1.877 1.877 0 01-1.875-1.875c0-1.034.841-1.875 1.875-1.875S37 24.216 37 25.25a1.877 1.877 0 01-1.875 1.875zM25.063 38.75a.625.625 0 100-1.25.625.625 0 000 1.25z" fill="var(--icon-color, #000000)"/></svg><svg fill="none" viewBox="0 0 20 20" id="icon-print" xmlns="http://www.w3.org/2000/svg"><path fill-rule="evenodd" clip-rule="evenodd" d="M18 5.5h-2v-3a2 2 0 00-2-2H6a2 2 0 00-2 2v3H2a2 2 0 00-2 2v6a2 2 0 002 2h2v2a2 2 0 002 2h8a2 2 0 002-2v-2h2a2 2 0 002-2v-6a2 2 0 00-2-2zM6 2h8a.5.5 0 01.5.5v3h-9v-3A.5.5 0 016 2zm10 12h2a.5.5 0 00.5-.5v-6A.5.5 0 0018 7H2a.5.5 0 00-.5.5v6a.5.5 0 00.5.5h2v-2.5h12V14zM5.5 13h9v4.5a.5.5 0 01-.5.5H6a.5.5 0 01-.5-.5V13z" fill="var(--icon-color, #BEBEBE)"/></svg><svg fill="none" viewBox="0 0 51 51" id="icon-prohibited" xmlns="http://www.w3.org/2000/svg"><path d="M25.272 40.22c8.285 0 15-6.716 15-15 0-8.284-6.715-15-15-15-8.284 0-15 6.716-15 15 0 8.284 6.716 15 15 15z" stroke="var(--icon-color, #000000)" stroke-width="1.5" stroke-miterlimit="10"/><path d="M15.272 15.22l20 20" stroke="var(--icon-color, #000000)" stroke-width="1.5" stroke-linecap="round" stroke-linejoin="round"/></svg><svg fill="none" viewBox="0 0 20 20" id="icon-share" xmlns="http://www.w3.org/2000/svg"><path d="M5.25 12.656a2.625 2.625 0 100-5.25 2.625 2.625 0 000 5.25zM14.438 18.563a2.625 2.625 0 100-5.25 2.625 2.625 0 000 5.25zM14.438 6.75a2.625 2.625 0 100-5.25 2.625 2.625 0 000 5.25zM12.23 5.544L7.458 8.612M7.458 11.45l4.772 3.068" stroke="var(--icon-color, #BEBEBE)" stroke-width="1.5" stroke-linecap="round" stroke-linejoin="round"/></svg><svg fill="none" viewBox="0 0 50 50" id="icon-support" xmlns="http://www.w3.org/2000/svg"><path d="M47.727 42.578h-7.671v-8.726a5.792 5.792 0 00-3.448-5.291l-3.088-1.324c1.942-.613 3.293-2.505 3.293-4.54 0-1.11-.388-2.159-1.122-3.031a6.066 6.066 0 01-1.424-3.903v-2.807c0-2.46-.957-4.771-2.696-6.51a9.145 9.145 0 00-6.51-2.696c-5.076 0-9.205 4.13-9.205 9.206v2.716c0 1.476-.58 2.884-1.522 4.02a4.698 4.698 0 00-.643 5.041 4.694 4.694 0 002.908 2.524l-3.067 1.333a5.773 5.773 0 00-3.541 5.333v6.897a.586.586 0 101.172 0v-6.897a4.606 4.606 0 012.83-4.255l3.844-1.671v3.526H16.07c-1.029 0-1.856.92-1.748 1.944l.966 9.111H4.728a.586.586 0 000 1.172h43a.586.586 0 100-1.172zM34.795 20.42c.554.659.847 1.446.847 2.277 0 1.96-1.617 3.59-3.576 3.59h-.764l-1.003-.43a2.674 2.674 0 01-1.598-2.109 5.767 5.767 0 003.04-5.077v-4.405c.454.031.907.021 1.355-.03v1.527a7.24 7.24 0 001.699 4.657zm-9.591 9.25a21.71 21.71 0 01-6.195-.788v-1.395l1.219-.53a3.848 3.848 0 002.235-2.753c.51.149 1.049.23 1.606.23h1.91c.559 0 1.1-.082 1.611-.232a3.846 3.846 0 002.247 2.732l1.2.514v1.319a21.75 21.75 0 01-5.833.903zm5.834.317v1.537h-12.03v-1.429a22.906 22.906 0 0012.03-.108zm2.058-16.932c-1.614.218-3.434-.214-4.687-1.185a.586.586 0 00-.718.926 7.08 7.08 0 002.878 1.307v3.19c-.503 1.146-1.189 1.696-2.263 2.194-.285-.556-.874-1.172-1.54-1.172h-1.373a1.72 1.72 0 00-1.717 1.717c0 .948.77 1.718 1.717 1.718h1.373a1.72 1.72 0 001.662-1.283c.784-.299 2.062-.954 2.062-.954a4.597 4.597 0 01-4.512 3.748h-1.91a4.596 4.596 0 01-4.59-4.59v-4.53c1.99-.311 3.87-.985 5.595-2.005a15.916 15.916 0 005.325-5.185 8.029 8.029 0 012.698 6.104zm-5.784 6.98c-.001.3-.245.543-.546.543h-1.373a.546.546 0 010-1.091h1.373c.3 0 .545.244.546.544v.003zm-2.25-15.113c1.588 0 3.106.458 4.403 1.312a14.753 14.753 0 01-4.989 4.894 14.569 14.569 0 01-5.546 1.91h-1.902c.004-4.404 3.592-8.116 8.033-8.116zm-10.31 19.313a3.536 3.536 0 01.483-3.794c1.119-1.349 1.794-3.015 1.793-4.77V14.21h1.278v4.462a5.767 5.767 0 003.043 5.079 2.675 2.675 0 01-1.589 2.132l-.93.405h-.85a3.536 3.536 0 01-3.229-2.052zm20.397 9.108l-.98 9.235H16.468l-.979-9.235a.6.6 0 01.583-.648h18.495a.6.6 0 01.583.648zm3.735 9.235h-3.536l.966-9.111a1.775 1.775 0 00-1.748-1.944H32.21v-3.572l3.93 1.684a4.617 4.617 0 012.744 4.217v8.726zM25.319 35.41a2.229 2.229 0 00-2.227 2.227 2.23 2.23 0 002.227 2.226 2.229 2.229 0 002.226-2.226 2.229 2.229 0 00-2.226-2.227zm0 3.281a1.056 1.056 0 010-2.109 1.056 1.056 0 010 2.11z" fill="var(--icon-color, #000000)"/></svg><svg fill="none" viewBox="0 0 50 50" id="icon-text-cloud" xmlns="http://www.w3.org/2000/svg"><path d="M16.621 27.12a.5.5 0 100-1 .5.5 0 000 1zM24.642 26.12H18.6a.49.49 0 00-.48.5c0 .276.215.5.48.5h6.04a.49.49 0 00.48-.5.49.49 0 00-.48-.5zM24.637 29.12h-8.032a.492.492 0 00-.484.5c0 .276.217.5.484.5h8.032a.492.492 0 00.484-.5c0-.276-.216-.5-.484-.5z" fill="var(--icon-color, #000000)"/><path d="M29.496 12.12c-4.923 0-8.964 3.395-9.277 7.67-4.689.236-9.098 3.617-9.098 8.19 0 1.91.756 3.763 2.133 5.23a3.326 3.326 0 01-.879 3.133.547.547 0 00.387.934c1.56 0 3.063-.612 4.18-1.69 1.087.371 2.507.596 3.804.596 4.923 0 8.963-3.394 9.277-7.668 1.145-.051 2.336-.263 3.278-.584a6.033 6.033 0 004.18 1.69.547.547 0 00.386-.934 3.326 3.326 0 01-.879-3.134c1.377-1.467 2.133-3.318 2.133-5.23 0-4.751-4.749-8.203-9.625-8.203zm-8.75 22.97c-1.29 0-2.761-.254-3.747-.646a.547.547 0 00-.605.139 4.934 4.934 0 01-2.455 1.456 4.423 4.423 0 00.334-3.255.546.546 0 00-.134-.23c-1.24-1.279-1.924-2.903-1.924-4.574 0-3.854 3.907-7.11 8.531-7.11 4.367 0 8.203 3.037 8.203 7.11 0 3.92-3.68 7.11-8.203 7.11zm15.357-10.193a.549.549 0 00-.133.23 4.423 4.423 0 00.333 3.256 4.932 4.932 0 01-2.454-1.457.547.547 0 00-.606-.138c-.854.34-2.072.574-3.222.631-.16-2.068-1.191-4.012-2.955-5.455h7.133a.547.547 0 100-1.094h-8.813c-1.241-.632-2.635-1-4.07-1.077.314-3.673 3.863-6.579 8.18-6.579 4.625 0 8.532 3.256 8.532 7.11 0 1.67-.684 3.295-1.925 4.573z" fill="var(--icon-color, #000000)"/><path d="M32.559 17.59h-6.891a.547.547 0 100 1.093h6.89a.547.547 0 100-1.094z" fill="var(--icon-color, #000000)"/></svg><svg fill="none" viewBox="0 0 14 14" id="icon-time" xmlns="http://www.w3.org/2000/svg"><path d="M7 3C4.8 3 3 4.8 3 7s1.8 4 4 4 4-1.8 4-4-1.8-4-4-4zm1.173 5.893c-.2.12-.44.04-.56-.16L6.64 7.2c-.04-.08-.04-.12-.04-.2V4.733c0-.24.16-.4.4-.4.24 0 .4.16.4.4V6.88l.933 1.453c.08.2.04.44-.16.56z" fill="var(--icon-color, #ffffff)"/></svg><svg fill="none" viewBox="0 0 29 27" id="icon-warning" xmlns="http://www.w3.org/2000/svg"><path d="M16.677 2.898L27.57 22.275c.937 1.667-.267 3.725-2.18 3.725H3.607c-1.912 0-3.116-2.058-2.18-3.725L12.32 2.898c.955-1.7 3.403-1.7 4.358 0z" stroke="#E94200"/><path d="M13.427 20.4c0-.569.448-1.01.97-1.01.52 0 .968.441.968 1.01 0 .568-.447 1.009-.969 1.009-.521 0-.969-.44-.969-1.01zM13.924 17.297l-.995-6.13h2.933l-.995 6.13h-.943z" stroke="#E94200"/></svg><svg fill="none" viewBox="0 0 50 50" id="icon-wat-cloud" xmlns="http://www.w3.org/2000/svg"><path d="M29.496 12.12c-4.923 0-8.964 3.395-9.277 7.67-4.689.236-9.098 3.617-9.098 8.19 0 1.91.756 3.763 2.133 5.23a3.326 3.326 0 01-.879 3.133.547.547 0 00.387.934c1.56 0 3.063-.612 4.18-1.69 1.087.371 2.507.596 3.804.596 4.923 0 8.963-3.394 9.277-7.668 1.145-.051 2.336-.263 3.278-.584a6.033 6.033 0 004.18 1.69.547.547 0 00.386-.934 3.326 3.326 0 01-.879-3.134c1.377-1.467 2.133-3.318 2.133-5.23 0-4.751-4.749-8.203-9.625-8.203zm-8.75 22.97c-1.29 0-2.761-.254-3.747-.646a.547.547 0 00-.605.139 4.934 4.934 0 01-2.455 1.456 4.423 4.423 0 00.334-3.255.546.546 0 00-.134-.23c-1.24-1.279-1.924-2.903-1.924-4.574 0-3.854 3.907-7.11 8.531-7.11 4.367 0 8.203 3.037 8.203 7.11 0 3.92-3.68 7.11-8.203 7.11zm15.357-10.193a.549.549 0 00-.133.23 4.423 4.423 0 00.333 3.256 4.932 4.932 0 01-2.454-1.457.547.547 0 00-.606-.138c-.854.34-2.072.574-3.222.631-.16-2.068-1.191-4.012-2.955-5.455h7.133a.547.547 0 100-1.094h-8.813c-1.241-.632-2.635-1-4.07-1.077.314-3.673 3.863-6.579 8.18-6.579 4.625 0 8.532 3.256 8.532 7.11 0 1.67-.684 3.295-1.925 4.573z" fill="var(--icon-color, #000000)"/><path d="M32.559 17.59h-6.891a.547.547 0 100 1.093h6.89a.547.547 0 100-1.094zM19.782 29.986v-.517c0-.308.062-.586.187-.836.132-.249.286-.458.462-.627.183-.176.366-.34.55-.495.183-.161.337-.344.462-.55.132-.205.198-.429.198-.67a.969.969 0 00-.363-.77c-.235-.213-.532-.32-.891-.32-.448 0-.862.154-1.243.462l-.594-.759c.528-.469 1.166-.704 1.914-.704.638 0 1.18.187 1.628.561.447.374.67.858.67 1.452 0 .338-.065.642-.197.913a2.424 2.424 0 01-.484.671c-.19.176-.385.349-.583.517-.19.162-.352.345-.484.55a1.217 1.217 0 00-.198.671v.451h-1.034zm-.033 2.134v-1.089h1.1v1.09h-1.1z" fill="var(--icon-color, #000000)"/></svg><svg fill="none" viewBox="0 0 15 14" id="icon-ок" xmlns="http://www.w3.org/2000/svg"><path d="M10.572 4.528l-4.56 4.944L4.59 7.964" stroke="var(--icon-color, #ffffff)" stroke-linecap="round" stroke-linejoin="round" stroke-width="var(--icon-stroke, 1)"/></svg><svg fill="none" viewBox="0 0 96 32" id="main-logo" xmlns="http://www.w3.org/2000/svg"><path d="M73.86 19.128a4.658 4.658 0 01-7.607-5.225 4.657 4.657 0 016.86-1.698l2.539-3.57a9.045 9.045 0 00-14.279 7.859 9.04 9.04 0 005.563 7.854 9.047 9.047 0 009.492-1.607l-2.569-3.613zM53.292 7.491l-2.53 3.56a4.972 4.972 0 012.916 8.55 4.973 4.973 0 01-3.424 1.367V3.03H46.04v3.927a9.044 9.044 0 00-9.043 9.04 9.04 9.04 0 009.043 9.041v4.071h4.21v-4.07a9.038 9.038 0 008.913-7.494A9.032 9.032 0 0053.29 7.493l.003-.002zM41.066 16a4.971 4.971 0 014.972-4.972v9.942A4.973 4.973 0 0141.066 16M83.619 24.676h-4.601V7.315h4.6v17.361zm.585-8.679l6.225-8.68h4.785l-6.273 8.556 6.606 8.804h-4.855l-6.486-8.68" fill="var(--icon-color-text, #000000)"/><path d="M12.506 9.497H30.63A16.045 16.045 0 0021.156.849l-8.65 8.648z" fill="var(--icon-color-logo, #FC4C02)"/><path d="M31.519 12.047H9.427a1.275 1.275 0 01-.901-2.175L18.243.158A16.006 16.006 0 00.558 11.809a15.994 15.994 0 00-.182 7.637h22.33a1.275 1.275 0 01.901 2.175L13.433 31.793a16.018 16.018 0 0014.375-4.99 16.009 16.009 0 003.71-14.756z" fill="var(--icon-color-logo, #FC4C02)"/><path d="M19.63 21.993H1.167a16.047 16.047 0 009.403 9.058l9.06-9.058z" fill="var(--icon-color-logo, #FC4C02)"/></svg><svg fill="none" viewBox="0 0 62 350" id="slider-arrow" xmlns="http://www.w3.org/2000/svg"><path d="M5.9 0L62 175 5.9 350H1V0h4.9z" fill="#FC4C02"/><path d="M1.9 0L58 175 1.9 350H0V0h1.9z" fill="var(--icon-color, #ffffff)"/></svg></svg>