<svg width="20" height="20" viewBox="0 0 20 20" fill="none" xmlns="http://www.w3.org/2000/svg">
<g clip-path="url(#clip0)">
<rect width="20" height="6.66666" fill="#00B9E4"/>
<rect y="6.66663" width="20" height="6.66666" fill="#ED2939"/>
<rect y="13.3334" width="20" height="6.66666" fill="#3F9C35"/>
<path d="M12 9L12.1913 9.53806L12.7071 9.2929L12.4619 9.80866L13 10L12.4619 10.1913L12.7071 10.7071L12.1913 10.4619L12 11L11.8087 10.4619L11.2929 10.7071L11.5381 10.1913L11 10L11.5381 9.80866L11.2929 9.2929L11.8087 9.53806L12 9Z" fill="white"/>
<path fill-rule="evenodd" clip-rule="evenodd" d="M10.9052 11.4769C10.5089 12.0022 9.87958 12.3418 9.17091 12.3418C7.97195 12.3418 7 11.3699 7 10.1709C7 8.97195 7.97195 8 9.17091 8C9.87958 8 10.5089 8.33957 10.9052 8.86487C10.5802 8.55329 10.1391 8.36182 9.65333 8.36182C8.6542 8.36182 7.84424 9.17178 7.84424 10.1709C7.84424 11.17 8.6542 11.98 9.65333 11.98C10.1391 11.98 10.5802 11.7885 10.9052 11.4769Z" fill="white"/>
</g>
<defs>
<clipPath id="clip0">
<rect width="20" height="20" fill="white"/>
</clipPath>
</defs>
</svg>
