<?xml version="1.0" encoding="utf-8"?><svg viewBox="0 0 96 32" xmlns="http://www.w3.org/2000/svg" xmlns:xlink="http://www.w3.org/1999/xlink"><style>:root>svg{display:none}:root>svg:target{display:block}</style><svg fill="none" viewBox="0 0 10 5" id="icon-arrow" xmlns="http://www.w3.org/2000/svg"><path d="M1 1l4 3.158L9 1" stroke="var(--icon-color, #727272)" stroke-width="var(--icon-stroke, 1.5)" stroke-miterlimit="10" stroke-linecap="round" stroke-linejoin="round"/></svg><svg fill="none" viewBox="0 0 20 18" id="icon-message" xmlns="http://www.w3.org/2000/svg"><path d="M18 1H2a1 1 0 00-1 1v14.792a.1.1 0 00.162.078L4.75 14H18a1 1 0 001-1V2a1 1 0 00-1-1z" stroke="var(--icon-color, #E94200)" stroke-width="1.2"/></svg><svg fill="none" viewBox="0 0 96 32" id="main-logo" xmlns="http://www.w3.org/2000/svg"><path d="M73.86 19.128a4.658 4.658 0 01-7.607-5.225 4.657 4.657 0 016.86-1.698l2.539-3.57a9.045 9.045 0 00-14.279 7.859 9.04 9.04 0 005.563 7.854 9.047 9.047 0 009.492-1.607l-2.569-3.613zM53.292 7.491l-2.53 3.56a4.972 4.972 0 012.916 8.55 4.973 4.973 0 01-3.424 1.367V3.03H46.04v3.927a9.044 9.044 0 00-9.043 9.04 9.04 9.04 0 009.043 9.041v4.071h4.21v-4.07a9.038 9.038 0 008.913-7.494A9.032 9.032 0 0053.29 7.493l.003-.002zM41.066 16a4.971 4.971 0 014.972-4.972v9.942A4.973 4.973 0 0141.066 16M83.619 24.676h-4.601V7.315h4.6v17.361zm.585-8.679l6.225-8.68h4.785l-6.273 8.556 6.606 8.804h-4.855l-6.486-8.68" fill="var(--icon-color-text, #000000)"/><path d="M12.506 9.497H30.63A16.045 16.045 0 0021.156.849l-8.65 8.648z" fill="var(--icon-color-logo, #FC4C02)"/><path d="M31.519 12.047H9.427a1.275 1.275 0 01-.901-2.175L18.243.158A16.006 16.006 0 00.558 11.809a15.994 15.994 0 00-.182 7.637h22.33a1.275 1.275 0 01.901 2.175L13.433 31.793a16.018 16.018 0 0014.375-4.99 16.009 16.009 0 003.71-14.756z" fill="var(--icon-color-logo, #FC4C02)"/><path d="M19.63 21.993H1.167a16.047 16.047 0 009.403 9.058l9.06-9.058z" fill="var(--icon-color-logo, #FC4C02)"/></svg></svg>