<svg width="30" height="30" viewBox="0 0 30 30" fill="none" xmlns="http://www.w3.org/2000/svg">
<path d="M14.958 9.47068L15.7193 10.3647L16.4807 9.47068C17.2475 8.5702 18.4287 8 19.6431 8C21.7763 8 23.4387 9.66237 23.4387 11.7956C23.4387 13.1151 22.8543 14.3904 21.621 15.8982C20.3763 17.42 18.5773 19.054 16.3119 21.1083L16.3105 21.1096L15.7168 21.65L15.1276 21.1177C15.1273 21.1174 15.127 21.1171 15.1267 21.1169C12.8615 19.0584 11.0627 17.4225 9.81786 15.8996C8.58439 14.3905 8 13.1151 8 11.7956C8 9.66237 9.66237 8 11.7956 8C13.01 8 14.1912 8.5702 14.958 9.47068Z" stroke="#E94200" stroke-width="2"/>
</svg>
