<svg width="50" height="50" viewBox="0 0 50 50" fill="none" xmlns="http://www.w3.org/2000/svg">
    <path
        d="M32.1838 20.1106H32.1438C31.5982 20.1076 31.0711 20.3055 30.6653 20.6656C30.3368 19.768 29.5019 19.1227 28.5241 19.1227C27.9248 19.1268 27.3524 19.3698 26.9372 19.7968C26.5554 19.0336 25.7895 18.5159 24.9089 18.5159H24.8663C24.3944 18.5088 23.9339 18.6603 23.5605 18.9455V13.5047C23.5605 12.1899 22.5238 11.1204 21.2628 11.1204C20.0032 11.1204 18.9718 12.1892 18.9711 13.5031L18.9606 24.2979L18.3419 23.5559C17.7994 22.889 17.0008 22.4748 16.1367 22.4123C15.2905 22.3551 14.458 22.6458 13.8365 23.2161L13.2981 23.6565C13.1245 23.7986 13.179 24.2384 13.179 24.2384L18.413 34.1724C19.37 35.9878 21.1908 37.1204 23.1649 37.1204H29.0634V37.1153C32.0541 37.1153 34.4789 34.5528 34.4819 31.4064C34.4831 29.9987 34.4777 28.9494 34.4787 28.099C34.4817 25.8238 34.4794 24.9842 34.4735 22.4776C34.4705 21.1658 33.4413 20.1106 32.1838 20.1106ZM33.5146 28.0958C33.5137 28.9464 33.5123 29.9998 33.5109 31.4076C33.5083 34.0337 31.5006 36.1752 29.0353 36.1752H23.1651C21.5492 36.1752 20.0536 35.2373 19.2623 33.7359L14.2063 24.1429L14.4559 23.9373C14.4622 23.9322 14.4683 23.9262 14.4743 23.9209C14.9036 23.522 15.4811 23.3172 16.0692 23.3552C16.6704 23.4007 17.2251 23.6909 17.601 24.1562L19.0658 25.9161C19.1938 26.0704 19.4064 26.1283 19.5966 26.0612C19.7868 25.994 19.9139 25.8159 19.9139 25.6166L19.9226 13.5036C19.923 12.7104 20.5305 12.0651 21.2632 12.0651C21.996 12.0651 22.6035 12.7111 22.6035 13.5047V20.8082C22.6035 20.8336 22.6023 20.8592 22.6023 20.885C22.6023 20.8961 22.6035 20.9074 22.6035 20.9183V24.0409C22.6035 24.3018 22.8177 24.5134 23.082 24.5134C23.3462 24.5134 23.5605 24.3018 23.5605 24.0409V20.8241C23.5605 20.0589 24.1525 19.4609 24.8663 19.4609H24.9089C25.6421 19.4609 26.2521 20.0919 26.2521 20.8855V23.7428C26.2521 24.0037 26.4664 24.2153 26.7306 24.2153C26.9949 24.2153 27.2091 24.0037 27.2091 23.7428V21.501C27.2091 20.7072 27.79 20.0614 28.5272 20.0614C29.2601 20.0614 29.841 20.7069 29.841 21.501V23.6159C29.841 23.8768 30.0552 24.0884 30.3195 24.0884C30.5837 24.0884 30.798 23.8768 30.798 23.6159V22.4707C30.798 21.6768 31.4106 21.0555 32.1438 21.0555H32.1838C32.9151 21.0555 33.5111 21.6874 33.513 22.4788C33.5188 24.9836 33.5177 25.8222 33.5146 28.0958Z"
        fill="var(--icon-color, #000000)" />
</svg>