<svg width="20" height="20" viewBox="0 0 20 20" fill="none" xmlns="http://www.w3.org/2000/svg">
    <path fill-rule="evenodd" clip-rule="evenodd"
        d="M18 5.5H16V2.5C16 1.39543 15.1046 0.5 14 0.5H6C4.89543 0.5 4 1.39543 4 2.5V5.5H2C0.895431 5.5 0 6.39543 0 7.5V13.5C0 14.6046 0.895431 15.5 2 15.5H4V17.5C4 18.6046 4.89543 19.5 6 19.5H14C15.1046 19.5 16 18.6046 16 17.5V15.5H18C19.1046 15.5 20 14.6046 20 13.5V7.5C20 6.39543 19.1046 5.5 18 5.5ZM6 2H14C14.2761 2 14.5 2.22386 14.5 2.5V5.5H5.5V2.5C5.5 2.22386 5.72386 2 6 2ZM16 14H18C18.2761 14 18.5 13.7761 18.5 13.5V7.5C18.5 7.22386 18.2761 7 18 7H2C1.72386 7 1.5 7.22386 1.5 7.5V13.5C1.5 13.7761 1.72386 14 2 14H4V11.5L16 11.5V14ZM5.5 13L14.5 13L14.5 17.5C14.5 17.7761 14.2761 18 14 18H6C5.72386 18 5.5 17.7761 5.5 17.5V13Z"
        fill="var(--icon-color, #BEBEBE)" />
</svg>