<svg width="50" height="50" viewBox="0 0 50 50" fill="none" xmlns="http://www.w3.org/2000/svg">
    <path
        d="M35.9179 12.7101H33.7872V10.5778C33.7873 10.348 33.5797 10.1402 33.35 10.1403H19.2155C19.0999 10.1404 18.9883 10.1876 18.9046 10.2691L13.7216 15.4578C13.6414 15.5396 13.5941 15.6516 13.5932 15.7676V36.8546C13.5932 37.0866 13.7985 37.2921 14.0304 37.2921H16.1613V39.4243C16.1612 39.6542 16.3688 39.862 16.5985 39.8618H35.9184C36.148 39.862 36.3556 39.6542 36.3555 39.4243V13.1476C36.3556 12.9176 36.1477 12.7097 35.9179 12.7101ZM18.7792 11.6338V15.3301H15.0852L18.7792 11.6338ZM14.467 16.2051H19.2155C19.4452 16.2052 19.6528 15.9974 19.6527 15.7676V15.0893H29.3728C29.6047 15.0893 29.81 14.8839 29.81 14.6518C29.81 14.4198 29.6047 14.2143 29.3728 14.2143H19.6534V11.0153H32.9129V36.4171H14.467V16.2051ZM35.4807 38.9868H17.0351V37.2921H33.35C33.5797 37.2922 33.7873 37.0844 33.7872 36.8546V13.5851H35.4807V38.9868Z"
        fill="var(--icon-color, #000000)" />
    <path
        d="M18.0075 21.1329H29.373C29.6049 21.1329 29.8102 20.9275 29.8102 20.6954C29.8102 20.4634 29.6049 20.2579 29.373 20.2579H18.0075C17.7756 20.2579 17.5704 20.4634 17.5704 20.6954C17.5704 20.9275 17.7756 21.1329 18.0075 21.1329Z"
        fill="var(--icon-color, #000000)" />
    <path
        d="M18.0075 24.1541H29.373C29.6049 24.1541 29.8102 23.9487 29.8102 23.7166C29.8102 23.4846 29.6049 23.2791 29.373 23.2791H18.0075C17.7756 23.2791 17.5704 23.4846 17.5704 23.7166C17.5704 23.9487 17.7756 24.1541 18.0075 24.1541Z"
        fill="var(--icon-color, #000000)" />
    <path
        d="M18.0075 27.1775H29.373C29.6049 27.1775 29.8102 26.9721 29.8102 26.74C29.8102 26.508 29.6049 26.3025 29.373 26.3025H18.0075C17.7756 26.3025 17.5704 26.508 17.5704 26.74C17.5704 26.9721 17.7756 27.1775 18.0075 27.1775Z"
        fill="var(--icon-color, #000000)" />
    <path
        d="M18.0075 30.1975H29.373C29.6049 30.1975 29.8102 29.992 29.8102 29.76C29.8102 29.5279 29.6049 29.3225 29.373 29.3225H18.0075C17.7756 29.3225 17.5704 29.5279 17.5704 29.76C17.5704 29.992 17.7756 30.1975 18.0075 30.1975Z"
        fill="var(--icon-color, #000000)" />
    <path
        d="M18.0075 33.2193H29.373C29.6049 33.2193 29.8102 33.0139 29.8102 32.7818C29.8102 32.5498 29.6049 32.3443 29.373 32.3443H18.0075C17.7756 32.3443 17.5704 32.5498 17.5704 32.7818C17.5704 33.0139 17.7756 33.2193 18.0075 33.2193Z"
        fill="var(--icon-color, #000000)" />
    <path
        d="M18.0075 18.1111H29.373C29.6049 18.1111 29.8102 17.9056 29.8102 17.6736C29.8102 17.4415 29.6049 17.2361 29.373 17.2361H18.0075C17.7756 17.2361 17.5704 17.4415 17.5704 17.6736C17.5704 17.9056 17.7756 18.1111 18.0075 18.1111Z"
        fill="var(--icon-color, #000000)" />
</svg>