<svg width="30" height="30" viewBox="0 0 30 30" fill="none" xmlns="http://www.w3.org/2000/svg">
    <path fill-rule="evenodd" clip-rule="evenodd"
        d="M15 7C14.1277 7 13.3859 7.55839 13.1124 8.33721C11.2451 9.06212 9.92125 10.8765 9.92125 13V16.5484C9.92125 17.0026 9.76669 17.4432 9.48299 17.7978L8.22101 19.3753C7.6972 20.0301 8.16337 21 9.00188 21H9.92125H13.2676H16.7324H19.9213H20.8406C21.6791 21 22.1453 20.0301 21.6215 19.3753L20.3595 17.7978C20.0758 17.4432 19.9213 17.0026 19.9213 16.5484V13C19.9213 10.9462 18.6829 9.18158 16.9122 8.4121C16.6611 7.59444 15.9 7 15 7ZM17 22H13C13 23.1046 13.8954 24 15 24C16.1046 24 17 23.1046 17 22Z"
        fill="var(--icon-color, #727272)" />
</svg>