<svg width="50" height="50" viewBox="0 0 50 50" fill="none" xmlns="http://www.w3.org/2000/svg">
    <path
        d="M38.2231 26.8688H19.225C18.945 26.8688 18.6972 26.621 18.6972 26.341C18.6972 26.0611 18.945 25.8132 19.225 25.8132H38.2231C38.5031 25.8132 38.7509 26.0611 38.7509 26.341C38.7509 26.621 38.5031 26.8688 38.2231 26.8688Z"
        fill="var(--icon-color, #000000)" />
    <path
        d="M38.2231 22.6908H19.225C18.945 22.6908 18.6972 22.443 18.6972 22.163C18.6972 21.883 18.945 21.6352 19.225 21.6352H38.2231C38.5031 21.6352 38.7509 21.883 38.7509 22.163C38.7509 22.443 38.5031 22.6908 38.2231 22.6908Z"
        fill="var(--icon-color, #000000)" />
    <path
        d="M30.3061 18.5133H19.225C18.945 18.5133 18.6972 18.2654 18.6972 17.9855C18.6972 17.7055 18.945 17.4577 19.225 17.4577H30.3061C30.5861 17.4577 30.8339 17.7055 30.8339 17.9855C30.8339 18.2654 30.5861 18.5133 30.3061 18.5133Z"
        fill="var(--icon-color, #000000)" />
    <path
        d="M30.3061 14.3337H19.225C18.945 14.3337 18.6972 14.0858 18.6972 13.8059C18.6972 13.5259 18.945 13.2781 19.225 13.2781H30.3061C30.5861 13.2781 30.8339 13.5259 30.8339 13.8059C30.8339 14.0858 30.5861 14.3337 30.3061 14.3337Z"
        fill="var(--icon-color, #000000)" />
    <path
        d="M28.7226 40.9654C27.6178 40.9654 26.5379 40.6379 25.6193 40.0241C24.7008 39.4103 23.9848 38.538 23.5621 37.5173C23.1393 36.4966 23.0287 35.3735 23.2442 34.29C23.4597 33.2065 23.9917 32.2112 24.7729 31.4301C25.5541 30.6489 26.5494 30.1169 27.6329 29.9014C28.7164 29.6858 29.8395 29.7965 30.8601 30.2192C31.8808 30.642 32.7532 31.3579 33.3669 32.2765C33.9807 33.1951 34.3083 34.275 34.3083 35.3797C34.3068 36.8607 33.7178 38.2805 32.6706 39.3277C31.6234 40.3749 30.2035 40.9639 28.7226 40.9654ZM28.7226 30.8496C27.8266 30.8496 26.9508 31.1153 26.2058 31.6131C25.4608 32.1109 24.8802 32.8184 24.5373 33.6461C24.1944 34.4739 24.1047 35.3848 24.2795 36.2635C24.4543 37.1423 24.8858 37.9495 25.5193 38.583C26.1529 39.2166 26.9601 39.648 27.8388 39.8228C28.7176 39.9976 29.6284 39.9079 30.4562 39.565C31.284 39.2221 31.9915 38.6415 32.4892 37.8965C32.987 37.1516 33.2527 36.2757 33.2527 35.3797C33.2514 34.1787 32.7738 33.0272 31.9245 32.1779C31.0752 31.3286 29.9237 30.8509 28.7226 30.8496Z"
        fill="var(--icon-color, #000000)" />
    <path
        d="M27.4096 37.3199L26.1561 36.0663C25.9638 35.8672 25.9668 35.5222 26.1625 35.3265C26.3582 35.1307 26.7033 35.1277 26.9024 35.32L27.7828 36.2004L30.5432 33.4395C30.7423 33.2472 31.0873 33.2502 31.283 33.4459C31.4788 33.6416 31.4818 33.9867 31.2895 34.1858L28.1559 37.3199C27.958 37.5178 27.6075 37.5178 27.4096 37.3199Z"
        fill="var(--icon-color, #000000)" />
    <path fill-rule="evenodd" clip-rule="evenodd"
        d="M33 8V5C33 4.44772 32.5523 4 32 4H11C10.4477 4 10 4.44772 10 5V38C10 38.5523 10.4477 39 11 39H15V44.4182C15 44.6981 15.2478 44.946 15.5278 44.946H41.9204C42.2075 44.9474 42.4508 44.7023 42.4508 44.4182V16.9673C42.4508 16.8273 42.3952 16.6931 42.2962 16.5942L33.8514 8.15412C33.7524 8.05532 33.6182 7.99989 33.4783 8H33ZM11 5H32V8H15.5278C15.2478 8 15 8.24784 15 8.5278V38H11L11 5ZM32.948 9.0556H16.0556V43.8904H41.3952V17.5057H33.4758C33.1958 17.5057 32.948 17.2578 32.948 16.9779V9.0556ZM40.6583 16.4501H34.0036V9.80138L40.6583 16.4501Z"
        fill="var(--icon-color, #000000)" />
</svg>