<svg width="50" height="50" viewBox="0 0 50 50" fill="none" xmlns="http://www.w3.org/2000/svg">
    <path
        d="M33.8597 11.7345H33.5714V9.82096C33.5714 9.26341 33.3213 8.74445 32.8852 8.39708C32.4489 8.04971 31.8871 7.92201 31.3439 8.04672L15.1735 11.757C15.1723 11.7573 15.1712 11.7577 15.17 11.758C14.5066 11.8771 14.001 12.4574 14.001 13.1546V21.427C14.001 21.7026 14.2244 21.9261 14.5001 21.9261C14.7757 21.9261 14.9991 21.7026 14.9991 21.427V13.1546C14.9991 12.9219 15.1884 12.7325 15.4212 12.7325H27.5371C27.8128 12.7325 28.0362 12.509 28.0362 12.2334C28.0362 11.9578 27.8128 11.7344 27.5371 11.7344H19.7347L31.5671 9.01944C31.8127 8.96306 32.0664 9.02083 32.2633 9.17775C32.4604 9.33467 32.5733 9.56915 32.5733 9.82096V11.7344H29.5331C29.2574 11.7344 29.0341 11.9578 29.0341 12.2334C29.0341 12.509 29.2574 12.7325 29.5331 12.7325H33.8597C34.6003 12.7325 35.2028 13.335 35.2028 14.0756V34.7013C35.2028 34.9769 35.4262 35.2004 35.7018 35.2004C35.9775 35.2004 36.2009 34.9769 36.2009 34.7013V14.0756C36.2009 12.7847 35.1507 11.7345 33.8597 11.7345V11.7345Z"
        fill="var(--icon-color, #000000)" />
    <path
        d="M35.7009 36.1984C35.4252 36.1984 35.2019 36.4219 35.2019 36.6975V39.6588C35.2019 40.3995 34.5994 41.002 33.8588 41.002H15.4202C15.1875 41.002 14.9981 40.8126 14.9981 40.5799V23.4232C14.9981 23.1476 14.7746 22.9241 14.499 22.9241C14.2235 22.9241 14 23.1476 14 23.4232V40.5799C14 41.363 14.637 42 15.4201 42H33.8587C35.1496 42 36.1998 40.9498 36.1998 39.6588V36.6975C36.1999 36.4218 35.9765 36.1984 35.7009 36.1984V36.1984Z"
        fill="var(--icon-color, #000000)" />
    <path
        d="M19.2448 33.3015H30.9556C31.2312 33.3015 31.4546 33.078 31.4546 32.8024C31.4546 32.5268 31.2312 32.3034 30.9556 32.3034H19.2448C18.9692 32.3034 18.7458 32.5268 18.7458 32.8024C18.7458 33.078 18.9692 33.3015 19.2448 33.3015Z"
        fill="var(--icon-color, #000000)" />
    <path
        d="M21.4553 35.2004C21.1797 35.2004 20.9562 35.4238 20.9562 35.6994C20.9562 35.9751 21.1797 36.1984 21.4553 36.1984H28.7449C29.0205 36.1984 29.2439 35.9751 29.2439 35.6994C29.2439 35.4238 29.0205 35.2004 28.7449 35.2004H21.4553Z"
        fill="var(--icon-color, #000000)" />
    <path
        d="M21.9684 22.8348C22.0828 22.9492 22.2684 22.9492 22.3828 22.8348L23.4309 21.7867L25.4967 23.8526C26.1221 23.7016 26.551 23.3916 26.8234 23.1196C26.9338 23.0094 27.0332 22.8905 27.1205 22.7651L24.7865 20.4311L26.1484 19.0692C26.2322 18.9854 26.2572 18.8594 26.2119 18.7498C26.1666 18.6405 26.0598 18.569 25.9412 18.569H23.4309C23.3531 18.569 23.2785 18.5998 23.2236 18.6549L20.7133 21.1653C20.5988 21.2797 20.5988 21.4653 20.7133 21.5795L21.9684 22.8348Z"
        fill="var(--icon-color, #000000)" />
    <path
        d="M29.5604 25.2043C29.4348 25.375 29.2981 25.5383 29.151 25.6928C28.8514 26.0076 28.5159 26.2789 28.1483 26.5039L28.5587 26.9143C28.6159 26.9715 28.6909 27 28.7659 27C28.8409 27 28.9159 26.9715 28.9731 26.9143L29.9145 25.9729C30.0288 25.8584 30.0288 25.6729 29.9145 25.5584L29.5604 25.2043Z"
        fill="var(--icon-color, #000000)" />
    <path
        d="M30.0005 22.0001C30.0005 18.4444 27.0178 17.2032 26.3351 17.0111C26.1942 16.9715 26.0455 17.0419 25.9871 17.1762C25.9286 17.3105 25.9783 17.4672 26.1033 17.5434C26.1239 17.5559 28.1594 18.8246 28.1594 21.3725C28.1594 22.9253 26.8604 24.5314 24.6867 24.5314C23.4035 24.5314 22.377 23.669 22.3671 23.6607C22.2509 23.5609 22.0774 23.5675 21.9691 23.6758L20.0863 25.5586C19.9719 25.673 19.9719 25.8585 20.0863 25.9729L21.0277 26.9143C21.0849 26.9715 21.1599 27.0001 21.2349 27.0001C21.3098 27.0001 21.3848 26.9715 21.442 26.9143L22.5283 25.828C22.9719 26.1031 24.0602 26.6863 25.3143 26.6863C28.1661 26.6863 30.0005 24.5219 30.0005 22.0001Z"
        fill="var(--icon-color, #000000)" />
</svg>