<svg width="29" height="27" viewBox="0 0 29 27" fill="none" xmlns="http://www.w3.org/2000/svg">
    <path
        d="M16.6773 2.89756L27.5692 22.275C28.5059 23.9415 27.3016 26 25.3899 26H3.60599C1.69426 26 0.489937 23.9415 1.42667 22.275L12.3186 2.89756C13.2742 1.19754 15.7217 1.19754 16.6773 2.89756Z"
        stroke="#E94200" />
    <path
        d="M13.427 20.3998C13.427 19.8312 13.8748 19.3909 14.3961 19.3909C14.9174 19.3909 15.3652 19.8312 15.3652 20.3998C15.3652 20.9684 14.9175 21.4088 14.3961 21.4088C13.8747 21.4088 13.427 20.9684 13.427 20.3998Z"
        stroke="#E94200" />
    <path d="M13.9241 17.2968L12.9294 11.1667H15.8621L14.8674 17.2968H13.9241Z" stroke="#E94200" />
</svg>