<svg width="50" height="50" viewBox="0 0 50 50" fill="none" xmlns="http://www.w3.org/2000/svg">
    <path
        d="M36.1607 19.8353C36.0464 19.5914 35.7986 19.4338 35.5292 19.4338H34.9829C34.7135 19.4338 34.4657 19.5914 34.3514 19.8353C34.2372 20.0793 34.2748 20.3706 34.4472 20.5774L34.7203 20.9052C34.8532 21.0647 35.0484 21.1562 35.256 21.1562C35.4637 21.1562 35.6589 21.0647 35.7918 20.9052L36.0649 20.5774C36.2373 20.3706 36.2749 20.0793 36.1607 19.8353Z"
        fill="var(--icon-color, #000000)" />
    <path
        d="M33.389 17.3912C33.2298 17.3912 33.0736 17.456 32.961 17.5686C32.8484 17.6818 32.7836 17.8374 32.7836 17.9966C32.7836 18.1565 32.8484 18.3121 32.961 18.4247C33.0736 18.5379 33.2298 18.6028 33.389 18.6028C33.5483 18.6028 33.7045 18.538 33.8171 18.4247C33.9297 18.3127 33.9945 18.1565 33.9945 17.9966C33.9945 17.8374 33.9297 17.6812 33.8171 17.5686C33.7045 17.456 33.5483 17.3912 33.389 17.3912Z"
        fill="var(--icon-color, #000000)" />
    <path
        d="M37.1239 18.6021C37.2831 18.6021 37.4393 18.5379 37.5519 18.4247C37.6646 18.3121 37.7293 18.1565 37.7293 17.9966C37.7293 17.8374 37.6646 17.6812 37.5519 17.5686C37.4393 17.456 37.2831 17.3912 37.1239 17.3912C36.964 17.3912 36.8084 17.456 36.6952 17.5686C36.5826 17.6812 36.5184 17.8374 36.5184 17.9966C36.5184 18.1565 36.5826 18.3121 36.6952 18.4247C36.8078 18.5379 36.964 18.6021 37.1239 18.6021Z"
        fill="var(--icon-color, #000000)" />
    <path
        d="M37.0669 23.6746C39.3169 23.1555 41 21.1371 41 18.7317C41 17.6683 40.6631 16.6285 40.0454 15.7695C40.1155 15.4682 40.1631 15.1607 40.1875 14.8516C40.2269 14.3499 40.2054 13.8458 40.1235 13.3532C40.0671 13.0145 39.8618 12.7254 39.5604 12.5601C39.2589 12.3946 38.9047 12.3769 38.5887 12.5114C37.9021 12.8036 37.2835 13.2111 36.7455 13.7251C36.4736 13.6805 36.1993 13.6581 35.9263 13.6581H34.5858C34.3148 13.6581 34.0424 13.6802 33.7725 13.7241C33.2348 13.2106 32.6164 12.8034 31.9303 12.5114C31.6142 12.3769 31.2601 12.3946 30.9585 12.5601C30.6571 12.7255 30.4519 13.0146 30.3955 13.3533C30.3135 13.8458 30.292 14.3499 30.3315 14.8518C30.3557 15.1582 30.4027 15.4633 30.4718 15.7622C30.2407 16.0824 30.0488 16.428 29.8988 16.7905H21.3425C20.1124 16.7905 18.9269 17.0513 17.8192 17.5655C17.5159 17.7064 17.3842 18.0664 17.525 18.3696C17.6275 18.5904 17.8462 18.7203 18.0746 18.7203C18.16 18.7203 18.2467 18.7022 18.3292 18.6639C19.276 18.2243 20.2898 18.0015 21.3425 18.0015H29.5661C29.5309 18.2424 29.5121 18.4864 29.5121 18.7318C29.5121 21.5294 31.7882 23.8055 34.5858 23.8055H35.7852C35.3357 25.3604 34.2906 26.6775 32.8683 27.4726L32.5471 26.7865C32.4053 26.4837 32.0448 26.3531 31.742 26.4949C31.4392 26.6367 31.3086 26.9971 31.4504 27.3L33.0852 30.7916C33.1147 30.8545 33.1547 30.9118 33.2036 30.9612L33.9089 31.6724C34.0726 31.8376 34.021 32.0218 33.9912 32.0933C33.9614 32.1648 33.867 32.3311 33.6344 32.3311H31.9128C31.9128 32.3311 25.3623 23.8472 25.3468 23.8312C24.4567 22.715 23.0866 21.9977 21.5514 21.9977C21.217 21.9977 20.9459 22.2688 20.9459 22.6032C20.9459 22.9376 21.217 23.2087 21.5514 23.2087C23.5601 23.2087 25.1943 24.8429 25.1943 26.8516C25.1943 28.0034 24.6397 29.1001 23.7107 29.7852C23.5002 29.9405 23.4132 30.2132 23.4949 30.4616C23.5766 30.7101 23.8085 30.878 24.07 30.878H25.0319C25.9564 30.878 26.7405 31.4905 26.9996 32.3311H21.3425C17.3918 32.331 14.1777 29.1168 14.1777 25.1662C14.1777 24.1198 14.398 23.1116 14.8324 22.1694C14.9725 21.8658 14.8398 21.5062 14.5361 21.3661C14.2325 21.2261 13.8728 21.3587 13.7327 21.6624C13.2245 22.7646 12.9668 23.9435 12.9668 25.1662C12.9668 25.9353 13.0715 26.6804 13.2666 27.3885C11.3401 28.0657 10 29.9103 10 31.9983C10 34.6918 12.1913 36.8832 14.8849 36.8832H31.1107C31.4451 36.8832 31.7162 36.6121 31.7162 36.2777C31.7162 35.2162 31.2942 34.252 30.61 33.5419H33.6344C34.2912 33.5419 34.8562 33.1652 35.1089 32.5589C35.3616 31.9525 35.2312 31.2862 34.7686 30.8197L34.1373 30.1829L33.3828 28.5716C35.2648 27.5485 36.6079 25.7661 37.0669 23.6746ZM30.723 18.7317C30.723 17.8397 31.0343 16.9695 31.5997 16.2814C31.7259 16.1278 31.7686 15.922 31.7141 15.7309C31.6238 15.4143 31.5648 15.0864 31.5388 14.7565C31.5103 14.3949 31.5212 14.0321 31.571 13.6761C32.1595 13.944 32.6835 14.3201 33.1301 14.7952C33.2778 14.9524 33.498 15.0191 33.7082 14.9703C33.9979 14.903 34.2932 14.8689 34.5858 14.8689H35.9263C36.2207 14.8689 36.5176 14.9034 36.8088 14.9715C37.0193 15.0207 37.2399 14.954 37.3879 14.7964C37.8347 14.3208 38.3591 13.9443 38.9481 13.6762C38.998 14.0321 39.0088 14.3949 38.9803 14.7565C38.9565 15.0584 38.9052 15.3583 38.8275 15.6495C38.7355 15.8546 38.7635 16.1002 38.9123 16.2814C39.4777 16.9695 39.7891 17.8397 39.7891 18.7318C39.7891 20.8618 38.0562 22.5945 35.9263 22.5945H34.5858C32.4558 22.5945 30.723 20.8616 30.723 18.7317ZM25.4802 29.6975C26.0126 28.9607 26.3342 28.0812 26.3941 27.1632L30.383 32.331H28.2452C27.9876 30.9607 26.8723 29.8892 25.4802 29.6975ZM14.8849 35.6722C12.859 35.6722 11.2109 34.0241 11.2109 31.9983C11.2109 30.4257 12.221 29.0368 13.6725 28.5292C14.9704 31.4778 17.9197 33.5419 21.3425 33.5419H27.7694C29.0699 33.5419 30.1614 34.454 30.4377 35.6722L14.8849 35.6722Z"
        fill="var(--icon-color, #000000)" />
    <path
        d="M15.8422 20.2828C16.002 20.2828 16.1576 20.2181 16.2708 20.1054C16.3835 19.9928 16.4476 19.8366 16.4476 19.6774C16.4476 19.5181 16.3835 19.3619 16.2708 19.2493C16.1576 19.1367 16.002 19.0719 15.8422 19.0719C15.6829 19.0719 15.5273 19.1367 15.4141 19.2493C15.3015 19.3619 15.2373 19.5181 15.2373 19.6774C15.2373 19.8366 15.3015 19.9928 15.4141 20.1054C15.5273 20.218 15.6829 20.2828 15.8422 20.2828V20.2828Z"
        fill="var(--icon-color, #000000)" />
</svg>