<svg width="50" height="50" viewBox="0 0 50 50" fill="none" xmlns="http://www.w3.org/2000/svg">
    <path
        d="M32.1915 24.8351V22.498C32.1915 19.0888 29.9253 16.1992 26.8204 15.2554V14.1973C26.8204 12.9857 25.8347 12 24.6231 12C23.4115 12 22.4258 12.9857 22.4258 14.1973V15.2554C19.3209 16.1992 17.0547 19.0887 17.0547 22.498V24.8351C17.0547 27.8298 15.9132 30.6694 13.8405 32.831C13.6374 33.0428 13.5803 33.3553 13.6955 33.6252C13.8106 33.8952 14.0757 34.0703 14.3692 34.0703H21.0347C21.3749 35.7398 22.8546 37 24.6231 37C26.3917 37 27.8712 35.7398 28.2115 34.0703H34.877C35.1705 34.0703 35.4356 33.8952 35.5507 33.6252C35.6658 33.3553 35.6087 33.0428 35.4057 32.831C33.333 30.6694 32.1915 27.8297 32.1915 24.8351V24.8351ZM23.8907 14.1973C23.8907 13.7934 24.2192 13.4648 24.6231 13.4648C25.027 13.4648 25.3555 13.7934 25.3555 14.1973V14.9652C25.1145 14.942 24.8702 14.9297 24.6231 14.9297C24.376 14.9297 24.1317 14.942 23.8907 14.9652V14.1973ZM24.6231 35.5352C23.6683 35.5352 22.8542 34.9228 22.5518 34.0703H26.6944C26.392 34.9228 25.5779 35.5352 24.6231 35.5352V35.5352ZM15.9478 32.6055C17.6158 30.3695 18.5196 27.6637 18.5196 24.8351V22.498C18.5196 19.1326 21.2576 16.3945 24.6231 16.3945C27.9886 16.3945 30.7266 19.1326 30.7266 22.498V24.8351C30.7266 27.6637 31.6304 30.3695 33.2984 32.6055H15.9478Z"
        fill="var(--icon-color, #000000)" />
    <path
        d="M34.1449 22.4981C34.1449 22.9026 34.4728 23.2305 34.8773 23.2305C35.2818 23.2305 35.6097 22.9026 35.6097 22.4981C35.6097 19.5635 34.467 16.8046 32.3919 14.7295C32.1059 14.4435 31.6422 14.4435 31.3561 14.7295C31.0701 15.0156 31.0701 15.4793 31.3561 15.7653C33.1545 17.5637 34.1449 19.9548 34.1449 22.4981V22.4981Z"
        fill="var(--icon-color, #000000)" />
    <path
        d="M14.3691 23.2305C14.7736 23.2305 15.1016 22.9025 15.1016 22.498C15.1016 19.9548 16.092 17.5637 17.8903 15.7653C18.1764 15.4793 18.1764 15.0156 17.8903 14.7295C17.6043 14.4435 17.1406 14.4435 16.8545 14.7295C14.7795 16.8046 13.6367 19.5635 13.6367 22.498C13.6367 22.9025 13.9646 23.2305 14.3691 23.2305V23.2305Z"
        fill="var(--icon-color, #000000)" />
</svg>