<svg width="50" height="50" viewBox="0 0 50 50" fill="none" xmlns="http://www.w3.org/2000/svg">
    <path fill-rule="evenodd" clip-rule="evenodd"
        d="M30.0156 32.356L28.6495 30.5577V29.7427L28.0116 29.9259C26.2266 30.4382 24.3241 30.4076 22.541 29.8245L22.2491 29.7291L12.1903 39.7879H7.5223L4.26423 36.5299L7.12066 33.6734L9.35822 33.3676L9.66397 31.1301L11.5796 29.2144L13.8171 28.9086L14.1229 26.6711L16.657 24.137L16.5612 23.845C15.4687 20.513 16.3222 16.8577 18.8371 14.3428C19.7319 13.4481 20.7731 12.76 21.9008 12.2975L22.2111 12.1703V9.87489C22.2111 6.81541 24.7011 4.32544 27.7606 4.32544C30.4601 4.32544 32.7166 6.26494 33.2091 8.82451L33.2787 9.1862L33.6447 9.22697C38.3054 9.74605 41.942 13.7104 41.9419 18.5068C41.9419 22.0635 39.9607 25.2516 36.8322 26.8352L36.558 26.974V41.1992L33.2572 44.5H28.6495V40.4603L30.0156 38.662L28.6495 36.8636V34.1544L30.0156 32.356ZM27.7607 5.73801C25.4792 5.73801 23.6238 7.59332 23.6238 9.87489V11.7627L24.1896 11.6876C24.8842 11.5953 25.5792 11.5949 26.2769 11.6426C27.7012 10.3859 29.4016 9.52776 31.2939 9.26093L31.8816 9.17807L31.7002 8.61301C31.1658 6.9482 29.6036 5.73801 27.7607 5.73801ZM31.8975 13.6306V10.5909L31.3165 10.6862C27.5564 11.3031 24.6781 14.5737 24.6781 18.5068C24.6781 21.7471 26.6196 24.6315 29.6218 25.8517L30.0622 26.0307V30.0819L31.7893 32.356L30.0622 34.63V36.3878L31.7893 38.6619L30.0622 40.9359V43.0874H32.6722L35.1455 40.6142V26.0308C38.292 24.7521 40.5295 22.0135 40.5294 18.5068C40.5294 14.5738 37.6511 11.3032 33.891 10.6863L33.3101 10.591V13.6306C34.6166 14.1081 35.6276 15.1117 35.6276 16.592C35.6276 18.2588 34.2706 19.6158 32.6038 19.6158C30.9368 19.6158 29.5799 18.2589 29.5799 16.592C29.5799 15.1117 30.5909 14.108 31.8975 13.6306ZM24.4863 13.895L25.0222 12.9557L23.9594 13.1559C22.4145 13.447 20.9812 14.1963 19.8359 15.3416C17.5447 17.6329 16.8779 21.0453 18.1379 24.0311L18.3228 24.4689L15.458 27.3335L15.0715 30.1629L12.2421 30.5495L10.9991 31.7926L10.6125 34.6219L7.78323 35.0085L6.26188 36.5299L8.10737 38.3754H11.6052L21.9172 28.0634L22.3551 28.2482C24.2757 29.0587 26.4148 29.0796 28.3322 28.3269L28.6495 27.8615V26.9739L28.3753 26.8351C25.2467 25.2516 23.2656 22.0634 23.2656 18.5068C23.2656 16.83 23.7098 15.2562 24.4863 13.895ZM32.6039 14.9809C31.715 14.9809 30.9926 15.7033 30.9926 16.5921C30.9926 17.481 31.7149 18.2034 32.6039 18.2034C33.4927 18.2034 34.2151 17.4811 34.2151 16.5921C34.2151 15.7032 33.4927 14.9809 32.6039 14.9809Z"
        fill="var(--icon-color, #000000)" />
</svg>