<svg width="50" height="50" viewBox="0 0 50 50" fill="none" xmlns="http://www.w3.org/2000/svg">
    <path
        d="M25.2407 25.0522C25.2656 25.0522 25.2904 25.0522 25.3202 25.0522C25.3302 25.0522 25.3401 25.0522 25.3501 25.0522C25.365 25.0522 25.3849 25.0522 25.3998 25.0522C26.856 25.0274 28.0339 24.5155 28.9036 23.5364C30.817 21.3794 30.499 17.6818 30.4642 17.3289C30.3399 14.6799 29.0875 13.4126 28.0537 12.8211C27.2834 12.3788 26.3838 12.1402 25.3799 12.1204H25.3451C25.3401 12.1204 25.3302 12.1204 25.3252 12.1204H25.2954C24.7437 12.1204 23.6603 12.2098 22.6216 12.8012C21.5779 13.3927 20.3055 14.66 20.1813 17.3289C20.1465 17.6818 19.8284 21.3794 21.7419 23.5364C22.6066 24.5155 23.7845 25.0274 25.2407 25.0522ZM21.5083 17.4531C21.5083 17.4382 21.5133 17.4233 21.5133 17.4134C21.6773 13.8499 24.207 13.4672 25.2904 13.4672H25.3103C25.3203 13.4672 25.3352 13.4672 25.3501 13.4672C26.692 13.497 28.9732 14.0437 29.1272 17.4134C29.1272 17.4283 29.1272 17.4432 29.1322 17.4531C29.1372 17.4879 29.4851 20.8675 27.9046 22.6468C27.2784 23.3525 26.4435 23.7004 25.3451 23.7103C25.3352 23.7103 25.3302 23.7103 25.3202 23.7103C25.3103 23.7103 25.3053 23.7103 25.2954 23.7103C24.202 23.7004 23.3621 23.3525 22.7408 22.6468C21.1654 20.8775 21.5033 17.483 21.5083 17.4531Z"
        fill="var(--icon-color, #000000)" />
    <path
        d="M35.5341 32.1852C35.5341 32.1803 35.5341 32.1753 35.5341 32.1703C35.5341 32.1306 35.5292 32.0908 35.5292 32.0461C35.4993 31.062 35.4347 28.7609 33.2778 28.0253C33.2628 28.0204 33.243 28.0154 33.2281 28.0104C30.9866 27.4389 29.1229 26.1467 29.103 26.1318C28.7998 25.9181 28.3823 25.9926 28.1686 26.2958C27.9549 26.599 28.0295 27.0164 28.3326 27.2302C28.4171 27.2898 30.3952 28.6665 32.8702 29.3026C34.0282 29.7151 34.1574 30.9527 34.1922 32.0858C34.1922 32.1306 34.1922 32.1703 34.1972 32.2101C34.2022 32.6574 34.1724 33.3482 34.0928 33.7458C33.2877 34.203 30.1318 35.7835 25.3308 35.7835C20.5497 35.7835 17.3738 34.1981 16.5637 33.7408C16.4842 33.3432 16.4494 32.6524 16.4594 32.2051C16.4594 32.1653 16.4643 32.1256 16.4643 32.0809C16.4991 30.9477 16.6283 29.7102 17.7864 29.2977C20.2614 28.6615 22.2394 27.2799 22.3239 27.2252C22.6271 27.0115 22.7017 26.594 22.4879 26.2908C22.2742 25.9877 21.8568 25.9131 21.5536 26.1268C21.5337 26.1417 19.6799 27.4339 17.4285 28.0055C17.4086 28.0104 17.3937 28.0154 17.3788 28.0204C15.2218 28.7609 15.1572 31.062 15.1274 32.0411C15.1274 32.0858 15.1274 32.1256 15.1224 32.1653C15.1224 32.1703 15.1224 32.1753 15.1224 32.1803C15.1175 32.4387 15.1125 33.7657 15.3759 34.4317C15.4256 34.5609 15.5151 34.6702 15.6344 34.7448C15.7835 34.8442 19.3569 37.1204 25.3357 37.1204C31.3146 37.1204 34.888 34.8392 35.0371 34.7448C35.1514 34.6702 35.2459 34.5609 35.2956 34.4317C35.5441 33.7706 35.5391 32.4437 35.5341 32.1852Z"
        fill="var(--icon-color, #000000)" />
</svg>