<svg width="50" height="50" viewBox="0 0 50 50" fill="none" xmlns="http://www.w3.org/2000/svg">
    <path
        d="M15.9215 26.5115C15.3704 26.8384 15 27.4391 15 28.125C15 29.1589 15.8411 30 16.875 30C17.6898 30 18.3845 29.4774 18.6425 28.75H23.5C24.5339 28.75 25.375 29.5911 25.375 30.625C25.375 31.6589 24.5339 32.5 23.5 32.5H16C14.2769 32.5 12.875 33.9019 12.875 35.625C12.875 37.3481 14.2769 38.75 16 38.75H22.25C22.5952 38.75 22.875 38.4702 22.875 38.125C22.875 37.7798 22.5952 37.5 22.25 37.5H16C14.9661 37.5 14.125 36.6589 14.125 35.625C14.125 34.5911 14.9661 33.75 16 33.75H23.5C25.2231 33.75 26.625 32.3481 26.625 30.625C26.625 28.9019 25.2231 27.5 23.5 27.5H18.6425C18.4947 27.0832 18.2036 26.7339 17.8285 26.5115L22.6021 18.6792C23.3531 17.5505 23.75 16.2352 23.75 14.875C23.75 11.0841 20.6659 8 16.875 8C13.0841 8 10 11.0841 10 14.875C10 16.2352 10.3969 17.5505 11.1479 18.6792L15.9215 26.5115ZM16.875 28.75C16.5304 28.75 16.25 28.4696 16.25 28.125C16.25 27.7804 16.5304 27.5 16.875 27.5C17.2196 27.5 17.5 27.7804 17.5 28.125C17.5 28.4696 17.2196 28.75 16.875 28.75ZM16.875 9.25C19.9766 9.25 22.5 11.7734 22.5 14.875C22.5 15.9918 22.1733 17.0709 21.5553 17.9959C21.5505 18.0031 21.5458 18.0104 21.5413 18.0179L16.875 25.6741C16.875 25.6741 12.1995 18.0031 12.1947 17.9959C11.5767 17.0709 11.25 15.9918 11.25 14.875C11.25 11.7734 13.7734 9.25 16.875 9.25Z"
        fill="var(--icon-color, #000000)" />
    <path
        d="M16.875 18C18.5981 18 20 16.5981 20 14.875C20 13.1519 18.5981 11.75 16.875 11.75C15.1519 11.75 13.75 13.1519 13.75 14.875C13.75 16.5981 15.1519 18 16.875 18ZM16.875 13C17.9089 13 18.75 13.8411 18.75 14.875C18.75 15.9089 17.9089 16.75 16.875 16.75C15.8411 16.75 15 15.9089 15 14.875C15 13.8411 15.8411 13 16.875 13Z"
        fill="var(--icon-color, #000000)" />
    <path
        d="M35.125 18.375C31.3341 18.375 28.25 21.4591 28.25 25.25C28.25 26.6124 28.6482 27.9297 29.4015 29.0596L34.1573 36.5196C33.7891 36.7424 33.5035 37.0884 33.3576 37.5H27.875C27.5298 37.5 27.25 37.7798 27.25 38.125C27.25 38.4702 27.5298 38.75 27.875 38.75H33.3575C33.6155 39.4774 34.3102 40 35.125 40C36.1589 40 37 39.1589 37 38.125C37 37.4449 36.6361 36.8484 36.0928 36.5196L40.8486 29.0596C41.6018 27.9297 42 26.6124 42 25.25C42 21.4591 38.9159 18.375 35.125 18.375ZM35.125 38.75C34.7804 38.75 34.5 38.4696 34.5 38.125C34.5 37.7804 34.7804 37.5 35.125 37.5C35.4696 37.5 35.75 37.7804 35.75 38.125C35.75 38.4696 35.4696 38.75 35.125 38.75ZM39.8053 28.3709C39.8029 28.3747 35.125 35.7123 35.125 35.7123C35.125 35.7123 30.4471 28.3746 30.4447 28.3709C29.8267 27.4459 29.5 26.3668 29.5 25.25C29.5 22.1484 32.0234 19.625 35.125 19.625C38.2266 19.625 40.75 22.1484 40.75 25.25C40.75 26.3668 40.4233 27.4459 39.8053 28.3709Z"
        fill="var(--icon-color, #000000)" />
    <path
        d="M35.125 22.125C33.4019 22.125 32 23.5269 32 25.25C32 26.9731 33.4019 28.375 35.125 28.375C36.8481 28.375 38.25 26.9731 38.25 25.25C38.25 23.5269 36.8481 22.125 35.125 22.125ZM35.125 27.125C34.0911 27.125 33.25 26.2839 33.25 25.25C33.25 24.2161 34.0911 23.375 35.125 23.375C36.1589 23.375 37 24.2161 37 25.25C37 26.2839 36.1589 27.125 35.125 27.125Z"
        fill="var(--icon-color, #000000)" />
    <path
        d="M25.0625 38.75C25.4077 38.75 25.6875 38.4702 25.6875 38.125C25.6875 37.7798 25.4077 37.5 25.0625 37.5C24.7173 37.5 24.4375 37.7798 24.4375 38.125C24.4375 38.4702 24.7173 38.75 25.0625 38.75Z"
        fill="var(--icon-color, #000000)" />
</svg>