<svg width="50" height="50" viewBox="0 0 50 50" fill="none" xmlns="http://www.w3.org/2000/svg">
    <path
        d="M15.511 22.0024C15.511 21.5855 15.8489 21.2476 16.2658 21.2476H31.2501C31.6669 21.2476 32.0048 21.5855 32.0048 22.0024C32.0048 22.4193 31.6669 22.7572 31.2501 22.7572H16.2658C15.8489 22.7572 15.511 22.4193 15.511 22.0024Z"
        fill="var(--icon-color, #000000)" />
    <path
        d="M15.511 27.8217C15.511 27.4048 15.8489 27.0669 16.2658 27.0669H25.3663C25.7831 27.0669 26.121 27.4048 26.121 27.8217C26.121 28.2386 25.7831 28.5765 25.3663 28.5765H16.2658C15.8489 28.5765 15.511 28.2386 15.511 27.8217Z"
        fill="var(--icon-color, #000000)" />
    <path
        d="M9.7 11.8191C9.7 8.99706 11.9971 6.7 14.8191 6.7H32.7049C35.5269 6.7 37.824 8.99706 37.824 11.8191V20.766C37.824 21.1829 37.4861 21.5208 37.0692 21.5208C36.6523 21.5208 36.3144 21.1829 36.3144 20.766V11.8191C36.3144 9.82819 34.6958 8.20956 32.7049 8.20956H14.8191C12.8282 8.20956 11.2096 9.82819 11.2096 11.8191V37.4233C11.2096 39.4142 12.8282 41.0328 14.8191 41.0328H19.6846C20.1014 41.0328 20.4393 41.3707 20.4393 41.7876C20.4393 42.2045 20.1014 42.5424 19.6846 42.5424H14.8191C11.9971 42.5424 9.7 40.2453 9.7 37.4233V11.8191Z"
        fill="var(--icon-color, #000000)" />
    <path
        d="M15.511 16.1833C15.511 15.7664 15.8489 15.4285 16.2658 15.4285H31.2501C31.6669 15.4285 32.0048 15.7664 32.0048 16.1833C32.0048 16.6002 31.6669 16.9381 31.2501 16.9381H16.2658C15.8489 16.9381 15.511 16.6002 15.511 16.1833Z"
        fill="var(--icon-color, #000000)" />
    <path
        d="M39.622 34.0563C40.3471 34.0563 40.9348 33.4686 40.9348 32.7435C40.9348 32.0184 40.3471 31.4307 39.622 31.4307C38.8969 31.4307 38.3092 32.0184 38.3092 32.7435C38.3092 33.4686 38.8969 34.0563 39.622 34.0563Z"
        fill="var(--icon-color, #000000)" />
    <path
        d="M45.4673 33.805C45.0291 32.6893 44.2257 31.0796 42.8861 29.7464C41.5514 28.4178 39.9587 27.6373 38.8576 27.2165C37.6488 26.7545 36.2752 27.0457 35.3583 27.9583L32.1362 31.1653C31.1811 32.116 30.9058 33.5787 31.4511 34.8052C31.6203 35.1856 31.8042 35.5576 32.0007 35.9171L24.9288 42.9889C24.7749 43.1428 24.6885 43.3515 24.6885 43.5692V47.1795C24.6885 47.6327 25.0558 48 25.509 48H29.1193C29.5725 48 29.9398 47.6327 29.9398 47.1795V45.7025L31.4168 45.7025C31.8699 45.7025 32.2373 45.3351 32.2373 44.882V43.4051H33.7142C34.1674 43.4051 34.5347 43.0377 34.5347 42.5846C34.5347 42.1314 34.1674 41.764 33.7142 41.764H31.4168C30.9636 41.764 30.5962 42.1314 30.5962 42.5846V44.0615L29.1193 44.0615C28.6661 44.0615 28.2988 44.4288 28.2988 44.882V46.359H26.3295V43.909L33.6057 36.6329C33.873 36.3656 33.9231 35.9503 33.7271 35.6271C33.4427 35.1584 33.1815 34.6575 32.9507 34.1384C32.68 33.5296 32.8179 32.8022 33.294 32.3284L36.516 29.1214C36.976 28.6636 37.6652 28.5176 38.2719 28.7494C39.2246 29.1135 40.5976 29.7838 41.7286 30.9095C42.8664 32.042 43.5591 33.4354 43.9399 34.4048C44.1774 35.0099 44.0331 35.6973 43.5721 36.1561L40.3111 39.4018C39.8362 39.8744 39.1274 40.0126 38.5053 39.7538C37.9921 39.5404 37.4952 39.2869 37.0283 39.0003C36.6421 38.7633 36.1369 38.8842 35.8998 39.2704C35.6628 39.6566 35.7837 40.1619 36.1699 40.399C36.7095 40.7301 37.2832 41.0229 37.875 41.269C39.1116 41.7834 40.5222 41.507 41.4687 40.565L44.7297 37.3193C45.6546 36.3987 45.9442 35.0193 45.4673 33.805Z"
        fill="var(--icon-color, #000000)" />
</svg>